<svg width="85" height="117" viewBox="0 0 85 117" fill="none" xmlns="http://www.w3.org/2000/svg">
<path fill-rule="evenodd" clip-rule="evenodd" d="M71.5216 93.2863C70.6543 93.9657 70.2472 94.95 70.0729 96.0564C69.9768 96.6667 69.4196 96.7502 69.0005 96.8574C68.6377 96.9507 68.3029 96.9628 68.0096 97.2622C67.8884 97.3862 67.5098 97.4132 67.3508 97.3163C66.8421 97.0062 66.2975 96.7796 65.828 96.366C64.1746 94.9113 62.9628 93.1119 61.8284 91.2762C60.6711 89.4033 59.4597 87.5503 58.5734 85.5188C58.2978 84.8865 58.2866 84.8917 58.9804 84.4007C59.5446 85.4736 60.0705 86.5628 60.6795 87.6035C61.1625 88.4292 61.7468 89.1948 62.3352 90.0588C62.4737 89.711 62.4704 89.4881 62.2555 89.1781C61.0851 87.4874 59.974 85.7585 59.0928 83.7787C59.2336 83.6868 59.4038 83.5754 59.573 83.4654C59.6122 83.4989 59.6994 83.5745 59.8486 83.7036V82.9986C60.2668 82.9152 60.6459 82.8401 61.1392 82.7422C61.5239 82.9217 61.7067 83.6024 62.3398 83.6868C62.3193 84.3755 62.9213 84.7187 63.2239 85.2218C63.5992 85.8457 64.1079 86.3889 64.4679 86.85C64.8745 86.7959 65.1785 86.739 65.4853 86.7176C66.5623 86.642 66.5362 86.6761 67.2072 87.2678C67.9528 87.9252 68.4628 88.8451 69.4243 89.2629C69.4863 89.2895 69.5553 89.3837 69.5586 89.4494C69.5884 90.1414 69.9759 90.3927 70.6254 90.5605C71.1705 90.7018 71.3253 91.2762 71.3509 91.8414C71.3705 92.2745 71.4502 92.7049 71.5216 93.2863" fill="white" fill-opacity="0.15"/>
<path fill-rule="evenodd" clip-rule="evenodd" d="M57.7865 61.077C57.157 60.4475 56.6287 59.8311 56.0128 59.3201C54.2461 57.8542 53.4073 55.7802 52.3508 53.8499C51.8761 52.9831 52.0118 52.0095 52.0323 51.0719C52.036 50.9091 52.2608 50.7511 52.3923 50.5804C52.5718 50.9357 52.7401 51.2686 52.9858 51.7545V50.0186C53.3556 49.8353 53.7206 49.7356 53.9696 49.5089C54.2788 49.2278 54.628 49.2833 54.9115 49.3546C55.2416 49.4376 55.5232 49.7132 55.8552 49.9239C55.6608 50.835 56.0193 51.5978 56.4637 52.3928C56.8614 52.2851 57.3309 52.5677 57.7291 52.1592C57.8135 52.0725 58.0905 52.0655 58.2099 52.1373C59.1853 52.7243 60.3822 53.0358 60.8755 54.2406C60.9641 54.4579 61.0625 54.7386 61.2406 54.8351C61.5091 54.9806 61.2681 55.4347 61.7292 55.4524C62.1088 55.4669 61.8663 55.8539 61.9344 56.0646C62.0188 56.3258 62.1339 56.5813 62.1796 56.8489C62.2216 57.0942 62.1885 57.3525 62.1885 57.6071C61.2121 58.4445 60.5845 59.5113 60.1034 60.6998C59.3224 60.8266 58.5297 60.9558 57.7865 61.077" fill="white" fill-opacity="0.15"/>
<path fill-rule="evenodd" clip-rule="evenodd" d="M26.0367 11.8569C25.4945 12.2252 24.9722 12.5945 24.4281 12.927C24.3754 12.9591 24.1861 12.7675 23.9819 12.6248C23.8569 12.8491 23.7721 13.0547 23.6396 13.2226C23.4839 13.4207 23.2839 13.5839 23.1072 13.7662C22.7491 14.1351 22.404 14.5458 21.8748 13.9854C21.8343 13.943 21.7112 13.9849 21.6277 13.9761C21.0332 13.9117 20.4667 14.06 19.8685 13.5816C19.3868 13.1965 18.7737 12.9302 18.321 12.4574C17.8967 12.0136 17.4574 11.5967 17.1614 11.0335C16.7072 10.1685 16.2587 9.31341 16.4205 8.29835C16.461 8.04377 16.6359 7.81017 16.7939 7.46933C17.1138 7.73137 17.3301 7.90855 17.5829 8.11604C17.7899 7.42923 17.7474 6.63098 18.3839 6.02577C18.6334 6.21228 18.8744 6.39225 19.1752 6.61699V5.68959C20.0107 5.54691 20.7698 5.25969 21.6072 5.31005C22.0874 5.33896 22.5024 5.49096 22.8064 5.78238C23.1972 6.15632 23.6755 6.42396 23.9945 6.90328C24.2826 7.33691 24.6766 7.69966 24.9792 8.14635C25.4758 8.88071 25.6437 9.73911 26.0069 10.5206C26.1803 10.8931 26.0367 11.4135 26.0367 11.8569" fill="white" fill-opacity="0.15"/>
<path fill-rule="evenodd" clip-rule="evenodd" d="M-3.21229 49.9261C-3.74756 49.3909 -4.31501 48.8234 -4.95379 48.1846C-4.95379 47.7617 -4.99762 47.2577 -4.93141 46.7686C-4.90623 46.5867 -4.64373 46.403 -4.44836 46.2962C-4.37422 46.2552 -4.18352 46.4277 -4.04457 46.5037C-3.85993 46.1382 -3.75176 45.6435 -3.12743 45.7638C-3.01133 45.7866 -2.84674 45.7936 -2.76747 45.7297C-2.45647 45.4779 -2.11796 45.221 -1.72024 45.3315C-1.00732 45.5302 -0.212803 45.6463 0.342986 46.1382C1.44151 47.1113 2.48594 48.1688 3.03287 49.5741C3.35879 50.412 3.65301 51.2774 3.8106 52.1577C3.87915 52.5428 3.77517 53.0716 3.33641 53.3784C2.61417 53.8843 1.91896 54.4307 1.18087 54.9119C0.929549 55.0756 0.575186 55.1889 0.281905 55.1632C-1.56591 55.0033 -2.88264 54.1337 -3.42864 52.0467C-3.50837 51.7427 -3.69907 51.4261 -3.65804 51.1417C-3.59836 50.73 -3.37362 50.3416 -3.21229 49.9261" fill="white" fill-opacity="0.15"/>
<path fill-rule="evenodd" clip-rule="evenodd" d="M-0.0417429 95.8665C-0.0920996 95.6114 -0.142456 95.3569 -0.192813 95.1018C-0.196077 96.1136 -1.26429 96.4922 -1.49696 97.3525C-1.57995 97.6602 -2.03503 97.7973 -2.2234 97.6262C-2.53067 97.3483 -2.74002 97.5511 -2.91347 97.6639C-3.37461 97.9642 -3.76627 97.9353 -4.2372 97.6602C-5.5945 96.8666 -6.9947 96.1374 -7.79481 94.6826C-8.75905 94.1609 -9.04114 93.1011 -9.64029 92.2954C-9.9317 91.9037 -10.0245 91.3642 -10.2278 90.8383C-9.87342 90.3221 -9.35866 90.4587 -8.7362 90.7693C-8.79635 90.476 -8.78003 90.206 -8.90312 90.0396C-9.07331 89.8106 -8.89147 89.7206 -8.79495 89.6801C-8.35666 89.4968 -7.90345 89.3625 -7.54256 89.0166C-7.45444 88.9317 -7.20498 88.9653 -7.05018 89.0119C-6.77369 89.0958 -6.53682 89.2726 -6.22955 89.0226C-6.14236 88.9522 -5.85887 89.093 -5.68076 89.1714C-4.15001 89.8437 -2.76473 90.6867 -1.85831 92.1788C-1.73615 92.3802 -1.46106 92.5938 -1.25543 92.7854C-0.665607 93.3333 -0.555101 94.1315 -0.0986271 94.7223C0.204446 95.1153 0.138236 95.4604 -0.0417429 95.8665" fill="white" fill-opacity="0.15"/>
<path fill-rule="evenodd" clip-rule="evenodd" d="M77.1437 36.5814C77.1773 36.3469 77.2109 36.1119 77.2482 35.8536C77.3405 35.9207 77.4226 35.9473 77.444 35.999C77.7699 36.7964 78.1761 37.5606 78.3677 38.4134C78.488 38.9496 78.6414 39.4629 78.1224 39.8807C77.769 40.1651 78.1276 40.982 77.3326 40.9363C76.9577 41.5383 76.3572 41.4781 75.7827 41.4371C75.6531 41.84 75.5724 42.2325 75.4032 42.5827C75.2125 42.9772 74.6031 43.0886 73.9498 42.9021C73.8006 42.8597 73.6565 42.7147 73.5199 42.7268C72.4615 42.8191 72.4634 42.827 72.0181 41.9924C71.7957 41.576 71.5271 41.1783 71.3546 40.7424C71.1448 40.2108 70.8184 39.8788 70.2817 39.6494C69.4849 39.3086 68.9673 38.6176 68.8298 37.7956C68.7053 37.0514 69.0536 36.3688 69.718 35.8326C70.0472 36.2625 70.3754 36.691 70.8356 37.2915C70.8356 36.677 70.8291 36.2634 70.8375 35.8503C70.8459 35.4395 70.8907 35.5235 71.5406 35.2306C72.005 35.0213 72.6779 35.2749 72.945 34.6306C73.4038 34.6128 73.8622 34.596 74.321 34.5783C75.1682 34.5448 75.9198 34.6371 76.3147 35.5789C76.4714 35.9519 76.8467 36.2336 77.1437 36.5814" fill="white" fill-opacity="0.15"/>
<path fill-rule="evenodd" clip-rule="evenodd" d="M45.3833 101.236C44.7254 101.217 44.103 101.04 43.785 101.769C43.2478 101.061 43.1844 100.559 43.7314 99.9967C44.109 99.6088 44.358 99.1243 44.8392 98.7891C45.2602 98.4953 45.415 97.8458 45.7778 97.4322C46.0566 97.1142 46.4753 96.9184 46.832 96.6689C46.9435 96.7776 47.0638 96.896 47.2535 97.0821C47.0521 97.2252 46.8544 97.366 46.6562 97.5064C46.6782 97.5572 46.7005 97.608 46.7225 97.6588C47.0125 97.6131 47.302 97.5674 47.6279 97.5162C47.7147 97.6462 47.8154 97.9801 48.0313 98.0925C49.3279 98.7676 50.1556 99.8946 50.9436 101.051C51.2023 101.431 51.2914 101.922 51.4993 102.342C52.0127 103.38 52.1451 103.572 51.9889 104.516C51.8761 105.198 51.7516 105.925 51.2159 106.481C51.0042 106.7 50.7785 107.017 50.7673 107.297C50.7393 108.006 50.35 108.119 49.7774 108.083C49.6175 108.073 49.4482 108.093 49.2925 108.135C48.2938 108.404 48.1907 108.376 47.6928 107.61C46.9551 106.477 46.6026 105.181 46.1737 103.921C45.8706 103.031 45.6393 102.115 45.3833 101.236" fill="white" fill-opacity="0.15"/>
<path fill-rule="evenodd" clip-rule="evenodd" d="M29.2134 87.2853C28.507 86.8843 27.7918 86.5332 27.2159 85.9527C26.1431 84.8691 24.9914 83.854 24.0015 82.6996C22.9608 81.4859 21.859 80.2894 21.231 78.8664C21.2972 78.3045 22.0292 78.9014 22.0432 78.2383C22.0474 78.049 22.5113 77.8662 22.7687 77.6867C23.4075 77.241 23.7642 77.1664 24.2295 77.6616C24.6888 78.1507 25.2199 78.326 25.8209 78.4533C26.7492 78.65 27.3899 79.363 28.1844 79.8017C29.0344 80.2708 29.6401 81.0261 30.3306 81.6822C30.6882 82.0216 31.1326 82.2823 31.4398 82.6581C31.749 83.0362 32.0329 83.4908 32.1425 83.9557C32.2087 84.2387 31.9961 84.6658 31.7798 84.9181C31.5126 85.2291 31.3862 85.6781 30.9186 85.8287C30.6481 85.9154 30.6864 86.2175 30.6337 86.4665C30.5731 86.7523 30.4933 87.1002 29.9972 86.7412C29.6503 86.4908 29.3584 86.8461 29.2134 87.2853" fill="white" fill-opacity="0.15"/>
<path fill-rule="evenodd" clip-rule="evenodd" d="M80.4065 79.9311C78.9573 79.3343 78.3344 78.2246 77.7152 77.1461C77.1711 76.1982 76.675 75.2111 76.2703 74.196C75.8669 73.1824 75.1633 72.2219 75.4771 70.9462C76.3938 71.5849 76.3178 72.8061 77.1981 73.6225C77.0368 72.331 76.3668 71.3332 76.0325 69.9726C76.495 70.2262 76.6629 70.3181 76.868 70.4305C76.9076 70.209 76.9491 69.9768 76.9902 69.7455C77.3734 69.6728 77.7516 69.601 78.1983 69.5161C78.3167 69.7054 78.472 69.9852 78.6566 70.2444C79.3765 71.253 79.3807 71.2483 80.6881 71.7132C80.8341 71.7654 80.9707 71.8502 81.1031 71.9342C82.1158 72.5739 83.0376 73.2947 83.5948 74.4068C83.8009 74.818 84.0816 75.5734 84.069 76.0112C84.0662 76.1138 84.152 76.2341 84.2266 76.3208C84.4169 76.5413 84.3311 76.7292 84.1343 76.8407C83.5631 77.1629 83.3155 77.797 82.8082 78.1765C82.5919 78.3383 82.5532 78.5537 82.514 78.8209C82.4599 79.1846 81.7465 79.656 81.4146 79.5795C81.2089 79.532 81.0761 79.1543 80.7958 79.4327C80.649 79.5791 80.5371 79.7609 80.4065 79.9311" fill="white" fill-opacity="0.15"/>
<path fill-rule="evenodd" clip-rule="evenodd" d="M39.2276 50.297C39.0056 50.3338 38.773 50.372 38.4517 50.4252C38.5785 50.663 38.669 50.8318 38.7636 51.009C38.1598 51.6128 37.5313 52.2413 36.8832 52.8899C36.7788 52.8899 36.651 52.8708 36.5307 52.8927C35.1044 53.1566 34.1546 52.3471 33.3624 51.3712C32.7437 50.6089 32.2117 49.7692 31.7976 48.8529C31.5393 48.2808 31.3085 47.754 31.4932 46.9767C31.9259 47.9279 32.3115 48.7746 32.6971 49.6218C32.7656 49.5994 32.8341 49.5775 32.9032 49.5551C32.8719 49.3938 32.8672 49.2208 32.8048 49.0726C32.5469 48.4599 32.2536 47.8612 32.0107 47.2434C31.903 46.9697 31.6722 46.6289 32.2602 46.5016C32.4415 46.4624 32.5479 46.0712 32.6863 45.8395C32.8076 45.6362 32.9251 45.4306 33.0211 45.2664C33.6156 45.2119 33.6212 45.7318 33.9919 45.9462C33.9056 45.6189 33.8194 45.2916 33.7056 44.8608C33.8958 44.7102 34.1499 44.5087 34.4041 44.3069C34.5645 44.4663 34.7771 44.7204 34.9743 44.2518C35.1883 43.7455 35.5044 43.5482 36.0169 43.8807C36.0635 43.911 36.16 43.9343 36.1908 43.9091C36.7843 43.42 37.134 43.9073 37.4087 44.2812C38.0642 45.175 38.3729 46.2484 38.7655 47.2695C38.8578 47.5092 39.0588 48.072 38.3827 48.099C38.3445 48.1004 38.3151 48.3107 38.282 48.4235C38.4228 48.4576 38.6392 48.5667 38.6928 48.5126C39.0718 48.1326 39.2761 48.6287 39.2388 48.7159C39.0108 49.2516 39.539 49.7692 39.2276 50.297" fill="white" fill-opacity="0.15"/>
<path fill-rule="evenodd" clip-rule="evenodd" d="M34.623 23.1624C34.7722 23.3116 34.9219 23.4613 35.149 23.6879C35.1905 23.3284 35.225 23.0319 35.2627 22.7083C35.7859 22.5987 36.3253 22.4607 36.8732 22.3796C37.2043 22.3306 37.554 22.332 37.8841 22.3828C38.1359 22.422 37.9382 22.891 38.4077 22.9321C38.7112 22.9587 38.9444 23.4743 39.1602 23.8334C39.3356 24.1248 39.073 24.7556 39.7389 24.7179C39.7617 25.1305 39.7846 25.5436 39.8084 25.9563C39.8102 25.9964 39.8195 26.036 39.8256 26.0761L41.7149 27.9654C41.9173 27.9654 42.1318 27.9393 42.3364 27.9715C42.6521 28.0223 42.992 28.3352 42.8302 28.5291C42.4703 28.9604 43.1156 29.2584 42.8596 29.6104C41.8762 29.9051 41.5662 29.9377 40.7661 29.7978C40.9666 30.231 41.1409 30.6087 41.3601 31.0833C41.2323 31.206 41.064 31.5048 40.898 31.5039C39.8503 31.496 38.7476 31.7618 37.8137 31.0181C37.5605 30.8162 37.2546 30.6581 37.0578 30.4114C36.6088 29.8491 36.2069 29.249 35.7971 28.656C35.5952 28.3636 35.4227 28.0503 35.2287 27.7519C34.9284 27.2898 35.0175 26.624 34.4668 26.2934C34.5503 25.7329 34.2341 25.3091 34.0323 24.8256C33.7576 24.1686 33.9278 23.5401 34.623 23.1624" fill="white" fill-opacity="0.15"/>
<path fill-rule="evenodd" clip-rule="evenodd" d="M-4.62126 4.31291C-4.12562 4.31291 -3.78664 4.31245 -3.44814 4.31291C-2.99446 4.31385 -2.50348 4.23784 -2.3995 4.89341C-2.38831 4.96615 -2.21859 5.07759 -2.13746 5.06593C-1.60032 4.9862 -1.46091 5.49396 -1.13219 5.71731C-0.240228 6.32345 -0.108741 7.32173 0.114134 8.24493C0.241425 8.77135 0.0712377 9.14902 -0.527914 9.50758C-1.20027 9.90997 -2.04188 10.1599 -2.50348 10.891C-2.911 10.8989 -3.24438 11.5363 -3.72044 11.0262C-3.78944 10.9525 -3.94238 10.9278 -4.05568 10.9297C-5.66057 10.9605 -6.6649 10.0391 -7.50372 8.81051C-7.92942 8.18758 -8.46236 7.63086 -8.62928 6.86385C-8.69782 6.54912 -8.73792 6.22647 -8.7603 5.90521C-8.76823 5.79984 -8.70621 5.61706 -8.63254 5.59048C-7.98677 5.35968 -7.51724 4.80902 -6.89104 4.58475C-6.11891 4.30872 -5.29315 4.22572 -4.62126 4.31291" fill="white" fill-opacity="0.15"/>
<path fill-rule="evenodd" clip-rule="evenodd" d="M-6.65982 65.994C-6.47378 66.2863 -6.33717 66.5018 -6.07139 66.92C-6.01171 66.477 -5.98886 66.3255 -5.97161 66.1735C-5.91566 65.6695 -5.91659 65.6704 -5.27967 65.6056C-5.19994 65.5972 -5.07732 65.6079 -5.04887 65.5627C-4.75839 65.1048 -4.30471 64.9766 -3.84684 65.1146C-3.32789 65.2708 -2.7707 65.4666 -2.36691 65.807C-0.7914 67.1349 0.135536 68.9147 0.85545 70.8031C0.977612 71.1252 0.872702 71.5337 0.872702 71.8974C0.683864 71.8764 0.535592 71.8601 0.386853 71.8433C0.419026 72.2993 0.31598 72.6373 -0.217428 72.7451C-0.377357 72.7777 -0.596035 73.0164 -0.611888 73.1773C-0.665509 73.7265 -1.22969 73.4589 -1.42645 73.7447C-1.74072 73.2444 -2.28159 73.8501 -2.63502 73.4925C-2.97352 73.1502 -3.43699 72.8863 -3.6608 72.4844C-4.15364 71.599 -4.6255 70.6776 -4.91412 69.7134C-5.06146 69.2201 -5.28014 68.8923 -5.66015 68.6685C-6.27702 68.3062 -6.75634 67.8469 -7.05755 67.1942C-7.30886 66.6491 -7.31959 66.6542 -6.65982 65.994" fill="white" fill-opacity="0.15"/>
<path fill-rule="evenodd" clip-rule="evenodd" d="M17.1726 51.2044C17.1726 51.0781 17.1423 50.9023 17.1833 50.7447C17.2109 50.6393 17.3913 50.5675 17.4072 50.4663C17.4244 50.3558 17.2948 50.229 17.2934 50.1087C17.2925 50.0019 17.4426 49.8709 17.4132 49.7921C17.3596 49.6471 17.2393 49.5128 17.1157 49.4121C17.0337 49.345 16.8971 49.344 16.7283 49.2984C16.8075 49.5739 16.8714 49.7959 16.9358 50.0183C16.4867 49.7446 15.9878 49.5264 16.2075 48.8666C16.393 48.9459 16.5753 49.0247 16.8015 49.1216C16.8742 48.3276 16.138 48.7407 15.8545 48.3649C16.2695 48.4138 16.546 48.128 16.9633 48.1835C17.1568 48.2092 17.4086 47.7979 17.7051 47.5172C18.1168 47.8534 18.5784 48.2297 19.1184 48.6703C19.171 48.3481 19.2088 48.1187 19.2545 47.8394C19.8648 47.7214 20.4906 47.6007 21.1233 47.4785C21.4483 47.8935 21.7024 48.2721 22.012 48.598C22.2806 48.8796 22.6498 49.0675 22.9086 49.3562C23.6388 50.1712 23.9698 51.2002 24.2701 52.2181C24.3778 52.5823 24.4963 53.1586 23.8001 53.256C23.8034 53.9246 23.0984 54.0244 22.7804 54.4483C22.3817 54.9789 21.6768 55.0703 20.9158 54.763C19.7763 54.3028 19.0274 53.4131 18.2996 52.5468C17.9354 52.1127 17.5265 51.7033 17.1726 51.2044" fill="white" fill-opacity="0.15"/>
<path fill-rule="evenodd" clip-rule="evenodd" d="M42.3234 98.1618C42.5286 98.2317 42.7267 98.2988 42.9538 98.3762C43 97.3066 41.8944 97.0068 41.7406 96.0221C41.9644 96.1209 42.1467 96.1629 42.2786 96.2678C42.4903 96.4366 42.6684 96.6464 42.9323 96.9103C42.8424 96.3741 42.7827 96.251 42.4768 95.8841C43.1454 95.0756 43.1454 95.0756 43.9348 95.0728C44.3689 95.5619 44.7396 96.2062 45.2958 96.5457C45.9099 96.921 46.0908 97.5617 46.5436 98.021C46.9763 98.4606 47.2635 99.0593 47.5502 99.6212C47.7078 99.9289 47.8417 100.322 47.7904 100.646C47.7251 101.054 47.5507 101.655 47.2616 101.772C46.786 101.963 46.8923 102.299 46.7427 102.588C46.5375 102.983 46.2568 103.368 45.7421 103.452C45.4413 103.502 45.0832 103.731 44.8627 103.632C44.326 103.39 43.7716 103.082 43.3748 102.659C42.626 101.861 41.9565 100.983 41.3158 100.093C41.1549 99.8702 41.2291 99.4785 41.1815 99.0379C41.3951 99.2104 41.4799 99.2785 41.6599 99.4235C41.5667 98.7749 42.1336 98.5525 42.3234 98.1618" fill="white" fill-opacity="0.15"/>
<path fill-rule="evenodd" clip-rule="evenodd" d="M31.4431 114.331C31.0958 114.14 30.9284 114.049 30.7661 113.959C30.4803 114.992 30.4094 115.046 29.565 114.673C29.7879 115.192 29.9665 115.607 30.1609 116.059C29.9403 116.186 29.7147 116.318 29.4867 116.45C29.0745 116.039 28.6562 115.62 28.1993 115.163C27.9242 115.783 28.6814 116.069 28.6068 116.667C27.9275 116.762 27.5335 116.3 27.1423 115.875C26.9287 115.642 26.8131 115.318 26.593 115.094C25.612 114.099 24.7308 113.022 23.9092 111.894C23.8355 111.792 23.7334 111.711 23.642 111.624C23.1469 111.151 22.6279 110.695 22.5911 109.925C23.0853 109.622 23.3478 110.089 23.684 110.377C24.0258 109.812 23.235 109.736 23.2704 109.319C23.3007 108.817 24.257 109.458 24.0141 108.636H25.391C25.785 108.914 26.1846 109.188 26.5762 109.473C26.9693 109.759 27.229 110.17 27.7102 110.402C28.1774 110.629 28.487 111.163 28.8982 111.526C29.1663 111.762 29.3365 112.087 29.765 112.193C30.0751 112.27 30.2406 112.74 30.7115 112.68C30.8426 112.662 31.079 112.899 31.1456 113.068C31.2729 113.388 31.3121 113.743 31.4431 114.331" fill="white" fill-opacity="0.15"/>
<path fill-rule="evenodd" clip-rule="evenodd" d="M22.7058 29.2845C23.1432 29.3134 23.4453 29.0873 23.8454 29.3759C23.6421 29.4458 23.4948 29.4967 23.3339 29.5521C23.484 30.0618 23.651 30.5681 23.7736 31.0848C23.8048 31.2172 23.7354 31.4787 23.6435 31.5175C23.1334 31.7329 22.9791 32.2817 22.5818 32.5824C22.406 32.7158 22.1426 32.7591 21.9127 32.7852C21.7976 32.7978 21.6619 32.6239 21.5467 32.636C21.4064 32.6509 21.2777 32.7736 21.1299 32.8575C20.9116 32.0863 20.9228 32.0551 20.0635 31.7622C19.5492 31.5869 19.4424 31.0815 19.0778 30.7635C18.9962 30.9374 18.9174 31.1053 18.8293 31.2936C18.7011 31.1594 18.4852 31.0372 18.4857 30.916C18.4922 29.4011 18.4908 29.367 17.7993 28.4592C17.4095 29.1442 18.1565 29.5405 18.197 30.2105C18.0119 30.1816 17.7354 30.203 17.7033 30.1242C17.3783 29.3344 16.8831 28.5884 17.3909 27.6409C17.5485 27.3467 17.5769 27.1924 17.9308 27.1863C18.149 27.183 18.3836 27.0548 18.578 26.9317C19.082 26.6133 19.5674 26.2664 20.1059 25.8994C20.229 26.0831 20.3428 26.2533 20.3153 26.2118C20.7401 26.5079 21.183 25.7106 21.2539 26.5419C21.2744 26.7779 21.8017 26.2151 21.8017 26.8329C21.8017 27.0716 22.2405 27.3108 22.461 27.5313C22.3823 27.7356 22.3076 27.9305 22.2326 28.1254C22.2951 28.1687 22.3575 28.2121 22.4205 28.2555C22.531 28.0452 22.6415 27.8349 22.7809 27.5705C23.008 27.9566 23.1399 28.1799 23.3129 28.4732C23.125 28.7241 22.9157 29.0043 22.7058 29.2845" fill="white" fill-opacity="0.15"/>
<path fill-rule="evenodd" clip-rule="evenodd" d="M8.12817 82.6461C8.31002 83.0667 8.44244 83.373 8.63174 83.8099C8.75204 83.4915 8.80752 83.3455 8.86627 83.1907C8.92316 83.2257 9.01641 83.2499 9.02853 83.2956C9.14323 83.7316 9.35026 84.1041 9.66499 84.4352C9.85336 84.6333 9.98951 84.8884 10.1177 85.1341C10.3439 85.5691 10.6647 85.8661 11.1841 85.9585C11.2657 85.7934 11.3496 85.6228 11.3888 85.5435C11.6294 85.7235 11.8909 85.9198 12.0858 86.0657C12.0858 86.2242 12.1026 86.2923 12.0835 86.3049C11.8532 86.4546 11.6177 86.5959 11.4028 86.7273C11.4652 87.0747 11.5212 87.3894 11.6056 87.8608C11.2246 87.6757 11.0162 87.5741 10.7159 87.4277C10.5495 87.7624 10.3826 88.0991 10.2031 88.4609C10.0324 88.48 9.83237 88.5033 9.58759 88.5309V89.096C8.9488 89.5744 8.42612 89.51 7.87219 89.005C7.26885 88.4549 6.58856 87.99 5.97309 87.3349C6.23187 87.1638 6.48179 86.9987 6.75595 86.8178C6.61607 86.3049 6.36476 85.847 6.00247 85.3994C5.64018 84.9513 5.44155 84.3704 5.18091 83.8659C5.55345 83.4066 5.84767 83.7465 6.18944 83.8901C6.2039 83.7619 6.26311 83.6253 6.22255 83.533C5.9675 82.9594 6.078 82.676 6.61841 82.6512C7.1257 82.6275 7.63486 82.6461 8.12817 82.6461" fill="white" fill-opacity="0.15"/>
<path fill-rule="evenodd" clip-rule="evenodd" d="M12.7161 64.797C13.0322 64.8898 13.3623 64.9863 13.768 65.1052C13.94 64.6954 13.9909 64.3018 13.6281 63.9358C14.0738 63.5306 14.3704 64.1415 14.8073 64.0752C14.8478 63.8547 14.8912 63.6225 14.9332 63.395C15.2754 63.0285 15.5841 63.7046 15.9977 63.3856C16.4206 63.0593 16.5273 63.7638 16.8868 63.8444C17.0887 63.8897 17.2776 64.1 17.4216 64.2771C17.8991 64.8628 17.9737 65.6913 18.6167 66.2028C18.7705 66.325 18.6885 66.7451 18.723 67.1186C18.0101 66.7684 17.9667 67.8996 17.2799 67.6315C17.0687 67.9732 17.2682 68.5929 16.4956 68.667C16.414 68.5281 16.2863 68.3103 16.1044 67.9998C15.9496 68.3229 15.8746 68.4796 15.7976 68.6409C15.3649 68.7435 15.1668 68.3705 15.0246 68.1332C14.5522 67.3428 13.9405 66.7381 13.1492 66.2653C12.6625 65.9743 12.3953 65.5002 12.7161 64.797" fill="white" fill-opacity="0.15"/>
<path fill-rule="evenodd" clip-rule="evenodd" d="M6.52905 31.0129C5.92896 31.4829 5.48648 31.8298 4.9153 32.2779H3.84709C3.43118 31.6764 3.29596 30.8852 2.68282 30.3886C2.61848 29.5512 2.03937 29.0322 1.53627 28.4485C1.37634 28.2624 1.41085 27.909 1.34277 27.563C1.52648 27.5117 1.70833 27.5155 1.80344 27.4264C2.77934 26.5139 3.69881 27.0268 4.47655 27.6493C5.14051 28.1804 5.70096 28.883 6.17142 29.5983C6.43812 30.0035 6.43113 30.5886 6.52905 31.0129" fill="white" fill-opacity="0.15"/>
</svg>
