<svg width="140" height="136" viewBox="0 0 140 136" fill="none" xmlns="http://www.w3.org/2000/svg">
<path fill-rule="evenodd" clip-rule="evenodd" d="M33.578 13.9652V18.0953C33.9612 17.0515 33.8949 15.9971 33.9273 14.9483C33.94 14.5263 33.7403 14.0012 34.252 13.7492C34.7806 13.4881 35.3389 13.2298 35.9091 13.1458C36.1053 13.1169 36.4787 13.5813 36.5902 13.8855C36.7102 14.2122 36.6177 14.6166 36.6177 15.0288C36.9367 14.8954 37.1266 14.7408 37.2966 14.7599C37.6481 14.7994 38.1309 15.1248 38.3108 14.9935C39.3109 14.2574 40.4069 14.7408 41.4409 14.683C41.9088 14.6569 42.6167 14.9695 42.8411 15.3492C43.3916 16.2843 44.5025 16.5702 45.0847 17.6705C45.1038 18.1405 45.1659 18.7213 45.6543 19.3467C46.2944 20.166 46.8407 21.1838 46.6424 22.3828C46.5499 22.9404 46.6261 23.5255 46.6261 24.2051C45.3141 24.9836 43.9492 25.7402 42.6407 26.5842C41.2715 27.4679 40.0258 26.8743 38.8606 26.2638C38.0102 25.8178 36.869 25.6089 36.5817 24.4211C34.6804 23.5657 34.3423 21.562 33.3274 20.0482C32.645 19.0305 32.6661 17.8462 32.4728 16.7692C32.3133 15.8792 32.9414 14.8481 33.2209 13.8798C33.3401 13.908 33.4594 13.937 33.578 13.9652Z" fill="white" fill-opacity="0.15"/>
<path fill-rule="evenodd" clip-rule="evenodd" d="M70.8203 34.7923C70.0101 33.9821 69.1511 33.1232 68.1843 32.1563C68.1843 31.5162 68.1179 30.7533 68.2181 30.0129C68.2562 29.7377 68.6536 29.4596 68.9493 29.298C69.0615 29.2359 69.3502 29.497 69.5605 29.612C69.84 29.0587 70.0037 28.3099 70.9487 28.492C71.1245 28.5266 71.3736 28.5372 71.4936 28.4405C71.9643 28.0594 72.4767 27.6705 73.0787 27.8378C74.1578 28.1384 75.3604 28.3141 76.2017 29.0587C77.8645 30.5317 79.4454 32.1323 80.2733 34.2595C80.7666 35.5277 81.2119 36.8376 81.4505 38.1701C81.5542 38.7531 81.3968 39.5534 80.7327 40.0178C79.6395 40.7836 78.5872 41.6107 77.47 42.3391C77.0896 42.5868 76.5532 42.7583 76.1093 42.7195C73.3123 42.4774 71.3192 41.1611 70.4928 38.0022C70.3721 37.542 70.0835 37.0628 70.1456 36.6323C70.2359 36.0091 70.5761 35.4212 70.8203 34.7923Z" fill="white" fill-opacity="0.15"/>
<path fill-rule="evenodd" clip-rule="evenodd" d="M75.6191 104.33C75.5429 103.944 75.4667 103.558 75.3905 103.172C75.3855 104.704 73.7686 105.277 73.4165 106.579C73.2908 107.045 72.602 107.252 72.3169 106.993C71.8518 106.573 71.5349 106.88 71.2723 107.05C70.5743 107.505 69.9815 107.461 69.2687 107.045C67.2142 105.844 65.0948 104.74 63.8837 102.538C62.4242 101.748 61.9972 100.144 61.0903 98.9243C60.6492 98.3314 60.5088 97.5149 60.201 96.7188C60.7374 95.9375 61.5166 96.1443 62.4588 96.6143C62.3677 96.1704 62.3924 95.7618 62.2061 95.5098C61.9485 95.1633 62.2238 95.0271 62.3699 94.9657C63.0333 94.6883 63.7193 94.485 64.2655 93.9614C64.3989 93.8329 64.7765 93.8837 65.0108 93.9543C65.4293 94.0813 65.7879 94.3488 66.253 93.9705C66.3849 93.864 66.814 94.0771 67.0836 94.1957C69.4007 95.2134 71.4975 96.4894 72.8695 98.7478C73.0544 99.0527 73.4708 99.376 73.782 99.666C74.6748 100.495 74.8421 101.704 75.533 102.598C75.9918 103.193 75.8916 103.715 75.6191 104.33Z" fill="white" fill-opacity="0.15"/>
<path fill-rule="evenodd" clip-rule="evenodd" d="M2.69473 23.9447C1.17593 23.6158 0.642376 22.5388 0.504046 21.5924C0.3269 20.382 -0.083148 19.1956 0.014953 17.916C0.14199 16.2596 0.132815 14.5792 0.00860112 12.9228C-0.0513887 12.1189 0.464524 11.5239 0.452526 10.7723C0.449703 10.5768 0.721421 10.1985 0.84987 10.2063C1.84076 10.2628 2.3115 9.18999 3.35039 9.18364C4.03851 9.18011 4.72309 8.53504 5.4952 8.13135C6.25601 8.89216 7.87432 7.95138 8.49116 9.62898C8.08746 10.8076 9.09318 11.843 9.43406 13.0505C9.48135 13.2192 9.65849 13.3695 9.6599 13.529C9.67614 15.431 9.66978 17.3324 9.66978 19.3981C9.36207 19.125 9.22868 19.0071 8.89768 18.7128C9.00143 19.1596 8.98167 19.5019 9.13411 19.6176C9.29644 19.7418 9.63873 19.6042 9.86881 19.6812C9.97326 19.7157 10.029 19.9917 10.0403 20.1625C10.046 20.2408 9.87587 20.4137 9.81376 20.401C9.34796 20.31 8.8885 20.183 8.3853 20.0573C8.04159 20.8012 7.67459 21.5952 7.40076 22.1887C6.87638 22.1499 6.56302 22.1259 6.25036 22.1026C6.79874 22.6559 6.1685 22.855 5.94054 23.1951C5.70834 23.5403 5.53825 23.927 5.35405 24.2707C4.14296 24.1395 3.69127 23.3589 3.36733 22.3249C3.13795 22.8783 2.93116 23.3744 2.69473 23.9447Z" fill="white" fill-opacity="0.15"/>
<path fill-rule="evenodd" clip-rule="evenodd" d="M119.901 91.3408C118.832 90.7338 117.749 90.2024 116.878 89.3237C115.254 87.6835 113.51 86.1471 112.012 84.3996C110.437 82.5625 108.769 80.7515 107.818 78.5975C107.919 77.7471 109.027 78.6505 109.048 77.6469C109.054 77.3603 109.757 77.0837 110.146 76.812C111.113 76.1373 111.653 76.0243 112.357 76.7739C113.052 77.5142 113.856 77.7796 114.766 77.9722C116.171 78.2701 117.141 79.3492 118.344 80.0133C119.63 80.7233 120.547 81.8666 121.592 82.8596C122.133 83.3734 122.806 83.768 123.271 84.3368C123.739 84.9092 124.169 85.5973 124.335 86.3009C124.435 86.7293 124.113 87.3758 123.786 87.7576C123.381 88.2284 123.19 88.908 122.482 89.136C122.073 89.2673 122.131 89.7246 122.051 90.1015C121.959 90.5341 121.838 91.0606 121.088 90.5172C120.562 90.1382 120.121 90.676 119.901 91.3408Z" fill="white" fill-opacity="0.15"/>
<path fill-rule="evenodd" clip-rule="evenodd" d="M135.059 35.3538C134.723 35.4096 134.371 35.4674 133.885 35.5479C134.077 35.9078 134.214 36.1633 134.357 36.4315C133.443 37.3455 132.492 38.2968 131.511 39.2786C131.353 39.2786 131.159 39.2496 130.977 39.2828C128.818 39.6823 127.381 38.4571 126.182 36.9799C125.245 35.826 124.44 34.5549 123.813 33.1681C123.422 32.3021 123.073 31.5046 123.352 30.3281C124.007 31.7678 124.591 33.0495 125.174 34.3319C125.278 34.298 125.382 34.2648 125.486 34.2309C125.439 33.9868 125.432 33.7249 125.337 33.5005C124.947 32.5731 124.503 31.6669 124.136 30.7318C123.972 30.3175 123.623 29.8016 124.513 29.6089C124.788 29.5496 124.949 28.9575 125.158 28.6067C125.342 28.299 125.52 27.9878 125.665 27.7393C126.565 27.6568 126.573 28.4437 127.134 28.7683C127.004 28.2729 126.873 27.7775 126.701 27.1253C126.989 26.8974 127.374 26.5925 127.758 26.2869C128.001 26.5283 128.323 26.9129 128.621 26.2036C128.945 25.4371 129.424 25.1386 130.199 25.6418C130.27 25.6877 130.416 25.723 130.463 25.6849C131.361 24.9445 131.89 25.682 132.306 26.2481C133.298 27.601 133.766 29.2257 134.36 30.7713C134.5 31.1341 134.804 31.9859 133.78 32.0269C133.723 32.029 133.678 32.3473 133.628 32.5181C133.841 32.5696 134.169 32.7347 134.25 32.6529C134.824 32.0777 135.133 32.8286 135.076 32.9606C134.731 33.7715 135.531 34.5549 135.059 35.3538Z" fill="white" fill-opacity="0.15"/>
<path fill-rule="evenodd" clip-rule="evenodd" d="M128.089 -5.71835C128.315 -5.4925 128.542 -5.26595 128.886 -4.92295C128.948 -5.46709 129.001 -5.91596 129.058 -6.40576C129.85 -6.57161 130.666 -6.78052 131.495 -6.90332C131.997 -6.97743 132.526 -6.97531 133.026 -6.89838C133.407 -6.8391 133.107 -6.1291 133.818 -6.06699C134.278 -6.02676 134.63 -5.24619 134.957 -4.70275C135.223 -4.26165 134.825 -3.30676 135.833 -3.36392C135.868 -2.73932 135.902 -2.11402 135.938 -1.48942C135.941 -1.42872 135.955 -1.36873 135.964 -1.30804L138.824 1.55171C139.13 1.55171 139.455 1.51219 139.765 1.56089C140.243 1.63782 140.757 2.11138 140.512 2.40498C139.967 3.05781 140.944 3.50879 140.557 4.04164C139.068 4.48769 138.599 4.53709 137.388 4.32536C137.691 4.98101 137.955 5.55268 138.287 6.27115C138.094 6.45676 137.839 6.90916 137.588 6.90774C136.002 6.89575 134.333 7.29803 132.919 6.17234C132.536 5.86674 132.073 5.62749 131.775 5.25414C131.095 4.40299 130.487 3.49468 129.867 2.59695C129.561 2.15443 129.3 1.68016 129.006 1.22847C128.552 0.529063 128.687 -0.478765 127.853 -0.979151C127.979 -1.82748 127.501 -2.46902 127.195 -3.20089C126.78 -4.19531 127.037 -5.14668 128.089 -5.71835Z" fill="white" fill-opacity="0.15"/>
<path fill-rule="evenodd" clip-rule="evenodd" d="M65.6019 59.1133C65.8835 59.5558 66.0903 59.8819 66.4926 60.515C66.5829 59.8445 66.6175 59.6151 66.6436 59.385C66.7283 58.6221 66.7269 58.6235 67.691 58.5254C67.8117 58.5127 67.9973 58.529 68.0403 58.4605C68.48 57.7674 69.1667 57.5734 69.8598 57.7823C70.6453 58.0187 71.4887 58.3151 72.0999 58.8303C74.4846 60.8403 75.8877 63.5342 76.9774 66.3926C77.1623 66.8802 77.0035 67.4985 77.0035 68.049C76.7177 68.0172 76.4932 67.9925 76.2681 67.9671C76.3168 68.6574 76.1608 69.169 75.3534 69.3321C75.1114 69.3815 74.7804 69.7428 74.7564 69.9863C74.6752 70.8177 73.8212 70.4126 73.5234 70.8452C73.0477 70.0879 72.229 71.0047 71.6941 70.4634C71.1817 69.9454 70.4801 69.5459 70.1414 68.9375C69.3954 67.5973 68.6812 66.2027 68.2443 64.7432C68.0213 63.9965 67.6903 63.5003 67.1151 63.1616C66.1813 62.6132 65.4558 61.918 64.9999 60.93C64.6195 60.1049 64.6033 60.1127 65.6019 59.1133Z" fill="white" fill-opacity="0.15"/>
<path fill-rule="evenodd" clip-rule="evenodd" d="M101.676 36.7272C101.676 36.5359 101.63 36.2698 101.692 36.0313C101.734 35.8718 102.007 35.7631 102.031 35.6099C102.057 35.4427 101.861 35.2507 101.859 35.0686C101.857 34.907 102.084 34.7087 102.04 34.5894C101.959 34.3699 101.777 34.1666 101.59 34.0142C101.465 33.9126 101.259 33.9112 101.003 33.842C101.123 34.2591 101.22 34.595 101.317 34.9317C100.638 34.5174 99.8824 34.1871 100.215 33.1885C100.496 33.3084 100.772 33.4277 101.114 33.5745C101.224 32.3726 100.11 32.9979 99.6805 32.4291C100.309 32.5032 100.727 32.0705 101.359 32.1545C101.652 32.1933 102.033 31.5708 102.482 31.146C103.105 31.6548 103.804 32.2244 104.621 32.8913C104.701 32.4036 104.758 32.0564 104.827 31.6337C105.751 31.4551 106.698 31.2723 107.656 31.0874C108.148 31.7155 108.532 32.2886 109.001 32.7819C109.407 33.2082 109.966 33.4926 110.358 33.9295C111.463 35.1632 111.964 36.7208 112.419 38.2615C112.582 38.8127 112.761 39.685 111.707 39.8325C111.712 40.8446 110.645 40.9956 110.164 41.6371C109.561 42.4403 108.493 42.5786 107.342 42.1135C105.617 41.4169 104.483 40.0703 103.382 38.759C102.83 38.102 102.211 37.4823 101.676 36.7272Z" fill="white" fill-opacity="0.15"/>
<path fill-rule="evenodd" clip-rule="evenodd" d="M139.745 107.804C140.056 107.91 140.356 108.012 140.699 108.129C140.769 106.51 139.096 106.056 138.863 104.565C139.202 104.715 139.478 104.778 139.677 104.937C139.998 105.193 140.267 105.51 140.667 105.91C140.531 105.098 140.44 104.912 139.977 104.356C140.989 103.133 140.989 103.133 142.184 103.128C142.841 103.869 143.402 104.844 144.244 105.358C145.174 105.926 145.448 106.896 146.133 107.591C146.788 108.256 147.223 109.163 147.657 110.013C147.895 110.479 148.098 111.074 148.02 111.564C147.921 112.183 147.657 113.092 147.22 113.268C146.5 113.558 146.661 114.067 146.434 114.505C146.124 115.102 145.699 115.684 144.92 115.812C144.465 115.887 143.923 116.234 143.589 116.084C142.776 115.718 141.937 115.251 141.337 114.611C140.203 113.403 139.19 112.074 138.22 110.727C137.977 110.39 138.089 109.797 138.017 109.13C138.34 109.391 138.468 109.494 138.741 109.714C138.6 108.732 139.458 108.396 139.745 107.804Z" fill="white" fill-opacity="0.15"/>
<path fill-rule="evenodd" clip-rule="evenodd" d="M123.276 132.279C122.751 131.99 122.497 131.851 122.252 131.716C121.819 133.279 121.712 133.36 120.434 132.797C120.771 133.582 121.041 134.211 121.335 134.894C121.002 135.087 120.66 135.286 120.315 135.487C119.691 134.863 119.058 134.23 118.366 133.538C117.95 134.476 119.096 134.909 118.983 135.815C117.955 135.958 117.359 135.259 116.766 134.615C116.443 134.263 116.268 133.773 115.935 133.434C114.45 131.927 113.116 130.297 111.873 128.589C111.761 128.436 111.607 128.313 111.468 128.181C110.719 127.466 109.933 126.775 109.877 125.609C110.626 125.151 111.023 125.857 111.532 126.294C112.049 125.438 110.852 125.324 110.906 124.693C110.952 123.932 112.399 124.902 112.031 123.659H114.116C114.712 124.079 115.317 124.494 115.91 124.926C116.505 125.358 116.898 125.98 117.626 126.332C118.333 126.675 118.802 127.484 119.424 128.032C119.83 128.39 120.088 128.882 120.736 129.043C121.206 129.159 121.456 129.871 122.169 129.779C122.367 129.753 122.725 130.111 122.826 130.366C123.019 130.852 123.078 131.389 123.276 132.279Z" fill="white" fill-opacity="0.15"/>
<path fill-rule="evenodd" clip-rule="evenodd" d="M110.051 3.54815C110.713 3.59191 111.171 3.24961 111.776 3.68648C111.468 3.79235 111.245 3.86927 111.002 3.95326C111.229 4.72466 111.482 5.49112 111.667 6.2731C111.715 6.47354 111.61 6.86947 111.47 6.92805C110.698 7.25411 110.465 8.08479 109.863 8.54001C109.597 8.74186 109.199 8.80749 108.851 8.84702C108.676 8.86607 108.471 8.60282 108.297 8.62117C108.084 8.64376 107.889 8.82937 107.666 8.95641C107.335 7.78908 107.352 7.74179 106.052 7.29857C105.273 7.03321 105.112 6.26816 104.56 5.78683C104.436 6.05008 104.317 6.30415 104.183 6.58928C103.989 6.38602 103.663 6.20111 103.663 6.01762C103.673 3.72459 103.671 3.67307 102.624 2.29895C102.034 3.33572 103.165 3.93562 103.226 4.9498C102.946 4.90604 102.528 4.9385 102.479 4.81923C101.987 3.62367 101.238 2.49445 102.006 1.06034C102.245 0.615003 102.288 0.381396 102.823 0.372221C103.154 0.367281 103.509 0.173196 103.803 -0.0131254C104.566 -0.495161 105.301 -1.02025 106.116 -1.57568C106.302 -1.29761 106.474 -1.04001 106.433 -1.10282C107.076 -0.654664 107.746 -1.86152 107.853 -0.603143C107.885 -0.246027 108.683 -1.09788 108.683 -0.162747C108.683 0.198603 109.347 0.56066 109.681 0.894485C109.561 1.20361 109.448 1.49862 109.335 1.79363C109.429 1.85926 109.524 1.9249 109.619 1.99053C109.787 1.67224 109.954 1.35394 110.165 0.953769C110.509 1.53814 110.708 1.8762 110.97 2.32013C110.686 2.69983 110.369 3.12399 110.051 3.54815Z" fill="white" fill-opacity="0.15"/>
<path fill-rule="evenodd" clip-rule="evenodd" d="M45.3543 61.0399C44.911 60.4809 44.5603 60.0384 44.1707 59.5458C43.9724 59.9516 43.846 60.2092 43.6816 60.5451C42.9413 60.1979 42.443 59.6248 42.0188 59.027C41.0816 57.7052 40.3567 56.247 39.4068 54.923C38.8224 54.1093 38.7878 53.0866 39.0186 52.028C39.8959 51.8501 40.0857 52.8813 40.8169 53.1417V51.2679C42.1988 51.0731 43.5306 50.8854 44.7515 50.7139C46.0325 51.8643 46.8759 53.1071 47.4737 54.5426C47.8152 55.3606 48.5189 55.9746 48.7327 56.9105C48.8174 57.2803 48.3432 57.7778 48.9268 58.0531C48.9367 58.0573 48.7532 58.5076 48.7476 58.5055C47.7948 58.1618 47.4744 59.5437 46.5576 59.3221C46.4983 59.3072 46.336 59.6615 46.2449 59.8556C46.144 60.0687 46.0988 60.3129 45.9746 60.5091C45.8829 60.6559 45.705 60.7477 45.3543 61.0399Z" fill="white" fill-opacity="0.15"/>
<path fill-rule="evenodd" clip-rule="evenodd" d="M87.9857 84.3191C88.261 84.9557 88.4614 85.4194 88.7479 86.0807C88.93 85.5987 89.014 85.3778 89.1029 85.1435C89.189 85.1964 89.3302 85.2331 89.3485 85.3022C89.5222 85.9621 89.8355 86.526 90.3119 87.0271C90.597 87.3271 90.8031 87.7131 90.9972 88.0851C91.3395 88.7435 91.8251 89.1931 92.6113 89.3329C92.7348 89.083 92.8618 88.8247 92.9211 88.7047C93.2853 88.9772 93.6812 89.2743 93.9762 89.4952C93.9762 89.7351 94.0016 89.8382 93.9727 89.8572C93.6241 90.0838 93.2676 90.2976 92.9423 90.4967C93.0369 91.0225 93.1216 91.4988 93.2493 92.2124C92.6727 91.9322 92.3572 91.7783 91.9027 91.5567C91.6507 92.0635 91.3981 92.573 91.1264 93.1207C90.8681 93.1496 90.5653 93.1849 90.1948 93.2266V94.0819C89.2279 94.806 88.4367 94.7087 87.5983 93.9443C86.685 93.1115 85.6553 92.4079 84.7237 91.4163C85.1154 91.1573 85.4937 90.9074 85.9087 90.6336C85.6969 89.8572 85.3165 89.1642 84.7682 88.4866C84.2198 87.8084 83.9191 86.929 83.5246 86.1654C84.0885 85.4702 84.5338 85.9847 85.0512 86.2021C85.073 86.008 85.1627 85.8012 85.1013 85.6615C84.7152 84.7934 84.8825 84.3643 85.7005 84.3269C86.4683 84.2909 87.239 84.3191 87.9857 84.3191Z" fill="white" fill-opacity="0.15"/>
<path fill-rule="evenodd" clip-rule="evenodd" d="M33.2058 91.9289C33.5283 92.406 33.7916 92.7963 34.1204 93.2826C34.2058 93.0165 34.323 92.845 34.2962 92.7017C34.1649 92.0066 33.9948 91.3192 33.817 90.535H34.9356C35.0323 90.7362 35.1509 90.9825 35.3852 91.4702V89.8977C35.604 89.8208 35.7903 89.7975 35.9208 89.7008C36.2194 89.4785 36.6922 88.9739 36.7409 89.0134C37.23 89.4157 37.8342 89.1729 38.3084 89.355C39.0156 89.626 39.6875 90.0989 39.6783 91.0009C39.6755 91.2705 39.3184 91.5704 39.372 91.797C39.4158 91.9812 39.9098 92.0221 40.0573 92.2303C40.178 92.4004 40.1879 92.8563 40.0637 92.9558C39.5647 93.3539 39.6748 93.8691 39.7087 94.3518C39.7517 94.9545 39.4878 95.3208 38.9528 95.4726C38.3811 95.6349 38.2477 96.0012 38.1278 96.5481C37.9577 97.321 37.4277 97.8348 36.5313 97.7966C36.2215 97.7839 35.9004 97.791 35.5997 97.8566C34.8347 98.0239 33.8706 97.8404 33.6321 97.2793C33.0498 95.9101 32.2071 94.6165 32.3638 93.0052C32.4252 92.3771 32.8035 92.1985 33.2058 91.9289Z" fill="white" fill-opacity="0.15"/>
<path fill-rule="evenodd" clip-rule="evenodd" d="M94.93 57.3019C95.4085 57.4423 95.9082 57.5884 96.5222 57.7684C96.7827 57.148 96.8596 56.5524 96.3105 55.9984C96.9852 55.385 97.4341 56.3096 98.0954 56.2094C98.1568 55.8755 98.2224 55.5241 98.2859 55.1797C98.804 54.6249 99.2712 55.6483 99.8972 55.1656C100.537 54.6715 100.699 55.7379 101.243 55.86C101.549 55.9285 101.835 56.2468 102.053 56.515C102.775 57.4014 102.888 58.6555 103.861 59.4298C104.094 59.6147 103.97 60.2506 104.022 60.8159C102.943 60.2859 102.878 61.998 101.838 61.5922C101.518 62.1095 101.82 63.0475 100.651 63.1597C100.527 62.9494 100.334 62.6198 100.059 62.1498C99.8245 62.6389 99.7109 62.876 99.5944 63.1202C98.9395 63.2755 98.6395 62.7109 98.4243 62.3516C97.7093 61.1554 96.7834 60.24 95.5857 59.5243C94.8489 59.0839 94.4445 58.3662 94.93 57.3019Z" fill="white" fill-opacity="0.15"/>
<path fill-rule="evenodd" clip-rule="evenodd" d="M85.5652 6.16421C84.6569 6.87562 83.9871 7.40071 83.1226 8.07895H81.5057C80.8761 7.16851 80.6715 5.97083 79.7434 5.2192C79.646 3.95165 78.7694 3.16613 78.0079 2.28252C77.7658 2.00092 77.8181 1.46595 77.715 0.942275C77.9931 0.864641 78.2683 0.870287 78.4123 0.735487C79.8895 -0.64569 81.2812 0.130648 82.4585 1.07284C83.4635 1.8767 84.3118 2.94029 85.0239 4.02293C85.4276 4.63624 85.417 5.52197 85.5652 6.16421Z" fill="white" fill-opacity="0.15"/>
</svg>
