<svg width="155" height="150" viewBox="0 0 155 150" fill="none" xmlns="http://www.w3.org/2000/svg">
<path fill-rule="evenodd" clip-rule="evenodd" d="M134.696 77.0624C134.331 77.9703 134.455 78.9083 134.812 79.837C135.009 80.3492 134.617 80.6609 134.343 80.9296C134.105 81.1624 133.853 81.3205 133.76 81.681C133.722 81.8303 133.443 82.0192 133.277 82.0153C132.748 82.0027 132.229 82.0702 131.684 81.9606C129.766 81.5758 128.034 80.7298 126.346 79.8214C124.624 78.8945 122.869 78.0071 121.285 76.8379C120.792 76.4739 120.785 76.4828 121.101 75.7969C122.012 76.3717 122.9 76.976 123.831 77.5062C124.569 77.9269 125.359 78.2564 126.195 78.6597C126.147 78.3306 126.046 78.1606 125.743 78.0176C124.091 77.2367 122.469 76.4001 120.911 75.2685C120.979 75.1353 121.06 74.9739 121.142 74.8141C121.187 74.8225 121.287 74.8419 121.459 74.875L121.146 74.3326C121.431 74.0827 121.689 73.8565 122.025 73.5621C122.401 73.5293 122.844 73.9719 123.369 73.7556C123.659 74.2945 124.274 74.2911 124.73 74.5438C125.296 74.857 125.929 75.0489 126.411 75.2438C126.699 75.0216 126.908 74.8428 127.135 74.6901C127.93 74.1535 127.925 74.1913 128.704 74.3485C129.569 74.5231 130.37 75.0043 131.295 74.8987C131.355 74.8916 131.45 74.9334 131.482 74.9825C131.812 75.5016 132.222 75.5228 132.796 75.3635C133.278 75.23 133.652 75.6032 133.923 76.0266C134.13 76.3511 134.383 76.6468 134.696 77.0624Z" fill="white" fill-opacity="0.15"/>
<path fill-rule="evenodd" clip-rule="evenodd" d="M25.028 57.9425C25.7928 57.8969 25.7928 57.8969 25.7532 57.091C26.0785 56.7176 26.7306 56.7146 26.8824 56.13C27.3547 55.9946 27.843 55.8993 28.2953 55.7151C29.0254 55.4174 29.677 55.7391 30.3133 55.959C30.7454 56.1084 31.1903 56.2519 31.615 56.44C32.1118 56.6601 32.6396 56.8088 33.1369 57.0273C33.5875 57.2253 34.0174 57.4721 34.4512 57.7066C34.5717 57.7719 34.7223 57.849 34.7747 57.9604C34.9138 58.2569 35.1217 58.3908 35.4396 58.4775C36.0509 58.644 36.3509 59.2332 36.7658 59.6422C37.1521 60.0237 37.3791 60.5818 37.6188 61.0896C37.7106 61.2834 37.9142 61.6924 37.3385 61.6364C37.2978 61.6322 37.243 61.8662 37.1782 61.9801C37.1097 62.1 36.9997 62.317 36.9447 62.3062C36.2971 62.177 36.3481 62.5072 36.3669 62.9938C36.3948 63.7099 36.1949 63.7712 35.3388 64.0809C34.8175 64.269 34.3082 64.5434 33.7949 64.2931C32.4071 63.6165 31.0053 62.958 30.0836 61.6009C29.7145 61.0569 29.2138 60.5559 28.5097 60.4181C27.9029 60.2992 27.3446 59.951 26.6804 60.0729C26.4801 60.1096 26.2442 59.9818 26.0308 59.9104C25.5766 59.7574 25.2293 59.4964 24.9693 59.0626C24.6991 58.6121 24.9997 58.3027 25.028 57.9425Z" fill="white" fill-opacity="0.15"/>
<path fill-rule="evenodd" clip-rule="evenodd" d="M109.823 58.3834C109.059 58.1787 108.379 57.9391 107.678 57.8196C105.668 57.4765 104.101 56.2535 102.431 55.2378C101.681 54.7817 101.353 53.9725 100.952 53.242C100.883 53.1152 100.985 52.8937 101.011 52.7041C101.307 52.8977 101.584 53.079 101.989 53.3436L101.218 52.0082C101.421 51.703 101.657 51.464 101.748 51.1791C101.861 50.8255 102.154 50.7131 102.404 50.642C102.695 50.5593 103.034 50.6462 103.383 50.6609C103.638 51.4481 104.253 51.8757 104.948 52.29C105.206 52.0304 105.693 52.0393 105.818 51.5482C105.844 51.444 106.054 51.3156 106.178 51.3178C107.189 51.3361 108.248 51.0441 109.163 51.7519C109.327 51.8797 109.528 52.052 109.708 52.0471C109.979 52.0398 109.995 52.4962 110.358 52.305C110.656 52.1476 110.642 52.553 110.788 52.6849C110.968 52.8483 111.171 52.9937 111.325 53.1793C111.466 53.3493 111.555 53.5628 111.668 53.7586C111.289 54.8365 111.28 55.936 111.438 57.0641C110.893 57.5085 110.341 57.96 109.823 58.3834Z" fill="white" fill-opacity="0.15"/>
<path fill-rule="evenodd" clip-rule="evenodd" d="M2.01564 59.8148C2.05371 59.4691 2.07573 59.1866 2.11944 58.9069C2.13578 58.8052 2.19442 58.7063 2.24904 58.6145C2.40462 58.353 2.77912 58.6222 2.94477 58.3152C3.07471 58.0747 3.24633 57.8268 3.46343 57.6718C3.6437 57.5434 4.05947 57.6099 4.1194 57.4768C4.25283 57.1802 4.36092 57.0518 4.68826 57.1598C4.74881 57.1794 4.86624 57.0705 4.93873 57.0013C5.47539 56.4911 5.47399 56.4895 6.15739 56.9028C6.12714 56.7452 6.10116 56.609 6.0534 56.3606C6.30613 56.5706 6.51254 56.7044 6.66941 56.8817C6.86128 57.098 7.02031 57.3453 7.17676 57.5898C7.3344 57.8355 7.47149 58.0945 7.76333 58.2727L7.31501 57.2775C7.34754 57.2568 7.38043 57.2359 7.41353 57.2154C7.52792 57.3713 7.6563 57.5191 7.75368 57.6853C8.2474 58.528 8.69717 59.399 9.23192 60.2142C9.70393 60.9331 9.96531 61.6799 9.90024 62.5373C9.65578 62.4775 9.37464 62.3352 9.4057 62.8032C9.43936 63.3147 9.10774 63.4659 8.59627 63.5178C8.7788 63.9897 9.04301 64.5177 8.23172 64.7685L7.60566 63.6841C7.55256 63.7024 7.49891 63.7204 7.44561 63.7383C7.54542 64.1738 7.64559 64.609 7.74838 65.0571C7.30421 65.0276 6.90992 64.951 6.7014 64.4698C6.64264 64.3348 6.41491 64.2817 6.2856 64.1679C5.72438 63.6722 5.72678 63.6689 5.20784 63.9489C5.10862 64.0023 5.0125 64.0612 4.91493 64.1175L4.64697 64.2722C4.25656 64.1676 3.89614 64.0586 3.53002 63.9754C2.75064 63.7993 2.22996 63.271 1.77554 62.672C1.55043 62.3749 1.42643 62.0002 1.19676 61.7076C0.943585 61.3851 0.974792 61.0208 0.991877 60.6809C1.02601 60.0036 1.1917 59.8888 2.01564 59.8148Z" fill="white" fill-opacity="0.15"/>
<path fill-rule="evenodd" clip-rule="evenodd" d="M63.535 34.6199C63.2815 35.1441 63.0437 35.6602 62.7728 36.1576C62.7465 36.2058 62.5158 36.1424 62.2953 36.1234C62.2988 36.3514 62.3248 36.5473 62.2975 36.7353C62.2657 36.9569 62.1843 37.1713 62.1293 37.39C62.0177 37.8328 61.9347 38.3021 61.2786 38.106C61.2285 38.0914 61.1525 38.1783 61.0843 38.2086C60.5984 38.4231 60.2284 38.7888 59.5557 38.6865C59.0141 38.6041 58.4242 38.6716 57.8659 38.509C57.3423 38.356 56.8192 38.2304 56.3413 37.9286C55.6077 37.4649 54.8828 37.0062 54.5564 36.1535C54.4746 35.9396 54.5053 35.6822 54.4755 35.3498C54.838 35.4093 55.0831 35.4495 55.3697 35.4969C55.2239 34.8766 54.8367 34.2813 55.0575 33.533C55.3323 33.5657 55.5977 33.5971 55.9289 33.6364L55.5169 32.9229C56.0964 32.4421 56.5528 31.8839 57.2194 31.5507C57.6017 31.3596 57.9885 31.2923 58.3518 31.3814C58.8185 31.4956 59.3054 31.489 59.7636 31.7161C60.1779 31.9217 60.6422 32.0258 61.0734 32.235C61.7816 32.5794 62.292 33.1652 62.9185 33.6051C63.2174 33.8147 63.3381 34.2788 63.535 34.6199Z" fill="white" fill-opacity="0.15"/>
<path fill-rule="evenodd" clip-rule="evenodd" d="M32.9021 77.2418L34.1141 79.341C34.0025 78.698 33.6594 78.1815 33.3681 77.639C33.2508 77.4207 32.9952 77.2125 33.1813 76.9342C33.3733 76.6464 33.5813 76.3513 33.8465 76.1413C33.9377 76.069 34.2637 76.1955 34.4097 76.3174C34.5665 76.4482 34.6382 76.6809 34.7592 76.8904C34.8822 76.729 34.9333 76.5947 35.0253 76.5545C35.2156 76.4714 35.5564 76.4951 35.6093 76.3756C35.9016 75.708 36.6006 75.6321 37.1091 75.2993C37.3393 75.1487 37.7908 75.0999 38.0163 75.227C38.5705 75.5408 39.219 75.3601 39.8378 75.7484C39.9854 75.9818 40.1874 76.2587 40.6191 76.4332C41.1849 76.6619 41.7612 77.0188 42.0122 77.6865C42.1289 77.997 42.3393 78.272 42.5387 78.6174C42.1003 79.3981 41.6286 80.1831 41.2112 80.9961C40.7746 81.847 39.9673 81.9109 39.196 81.9425C38.6328 81.9654 37.9915 82.1941 37.497 81.6746C36.2796 81.7978 35.5198 80.8786 34.5598 80.407C33.9142 80.09 33.5775 79.4819 33.1632 78.9913C32.8209 78.5857 32.8376 77.8773 32.6955 77.3032C32.7644 77.2825 32.8336 77.2622 32.9021 77.2418Z" fill="white" fill-opacity="0.15"/>
<path fill-rule="evenodd" clip-rule="evenodd" d="M57.9423 76.8985C57.2927 76.7244 56.6041 76.5399 55.829 76.3322C55.6411 76.0068 55.3835 75.6385 55.2172 75.2329C55.1558 75.0818 55.2762 74.8238 55.379 74.6549C55.4179 74.5904 55.6412 74.6385 55.7818 74.6352C55.7615 74.272 55.625 73.8433 56.1588 73.6586C56.2582 73.6246 56.388 73.5568 56.4206 73.4725C56.548 73.1407 56.6943 72.7927 57.0494 72.701C57.6861 72.5372 58.3489 72.2736 58.9949 72.4052C60.2723 72.6659 61.5455 73.0155 62.5904 73.8537C63.2133 74.3536 63.8241 74.8886 64.3363 75.4959C64.5601 75.7617 64.715 76.2147 64.5137 76.6456C64.1828 77.3556 63.8907 78.0848 63.5365 78.7828C63.4159 79.0204 63.1936 79.2649 62.9566 79.3755C61.464 80.0732 60.0647 79.989 58.7177 78.626C58.5213 78.4275 58.234 78.2686 58.1392 78.0316C58.0023 77.6883 58.0027 77.2897 57.9423 76.8985Z" fill="white" fill-opacity="0.15"/>
<path fill-rule="evenodd" clip-rule="evenodd" d="M80.7867 110.833C80.6347 110.66 80.4829 110.486 80.3308 110.312C80.7777 111.092 80.1241 111.858 80.3272 112.623C80.4 112.897 80.1108 113.204 79.8899 113.156C79.5301 113.079 79.4591 113.328 79.3758 113.492C79.1544 113.928 78.8402 114.079 78.3558 114.077C76.9591 114.069 75.558 114.13 74.2963 113.366C73.3227 113.393 72.635 112.703 71.8161 112.35C71.418 112.178 71.107 111.804 70.717 111.489C70.7603 110.935 71.217 110.811 71.8338 110.774C71.6573 110.575 71.5499 110.36 71.3813 110.287C71.1487 110.186 71.2486 110.036 71.3049 109.962C71.5606 109.626 71.8497 109.322 71.9736 108.895C72.0037 108.791 72.2106 108.706 72.3504 108.673C72.6004 108.615 72.8611 108.646 72.9865 108.317C73.0223 108.224 73.3029 108.206 73.4747 108.187C74.951 108.025 76.3912 108.058 77.7512 108.803C77.9347 108.904 78.2412 108.946 78.4845 109.002C79.1816 109.162 79.6211 109.727 80.2347 109.978C80.6425 110.146 80.7448 110.441 80.7867 110.833Z" fill="white" fill-opacity="0.15"/>
<path fill-rule="evenodd" clip-rule="evenodd" d="M113.835 30.9405C113.756 30.7452 113.678 30.5495 113.592 30.3342C113.693 30.3448 113.767 30.3288 113.807 30.3591C114.412 30.8278 115.064 31.2353 115.59 31.8063C115.921 32.1653 116.267 32.4921 116.053 33.044C115.907 33.4198 116.546 33.889 115.914 34.207C115.893 34.8366 115.404 35.0571 114.944 35.2806C115.024 35.6481 115.136 35.986 115.161 36.3306C115.19 36.7187 114.77 37.0752 114.185 37.2218C114.051 37.2555 113.876 37.2079 113.776 37.2779C113.003 37.819 113.008 37.8243 112.295 37.38C111.939 37.1585 111.555 36.9718 111.229 36.713C110.832 36.3973 110.433 36.2868 109.918 36.3487C109.154 36.4405 108.449 36.1387 107.978 35.5674C107.551 35.0502 107.516 34.3704 107.789 33.6627C108.233 33.8472 108.676 34.0311 109.297 34.2887C109.024 33.8159 108.835 33.5007 108.658 33.1791C108.482 32.8594 108.554 32.904 108.924 32.3901C109.188 32.0227 109.819 31.919 109.738 31.3046C110.083 31.0872 110.428 30.8707 110.773 30.6533C111.41 30.2512 112.029 29.9884 112.752 30.5375C113.038 30.7549 113.452 30.8049 113.835 30.9405Z" fill="white" fill-opacity="0.15"/>
<path fill-rule="evenodd" clip-rule="evenodd" d="M20.1337 91.3759C19.2652 91.6544 18.678 91.2636 18.33 90.8231C17.8848 90.2599 17.3282 89.7773 17.0026 89.0981C16.5811 88.219 16.0834 87.3676 15.5342 86.5621C15.2678 86.1712 15.3554 85.7174 15.1287 85.3389C15.0699 85.2404 15.097 84.9684 15.1646 84.9346C15.6848 84.6725 15.6093 83.9892 16.1354 83.6811C16.4841 83.4774 16.6428 82.9486 16.9168 82.5169C17.5267 82.6803 18.0731 81.7273 18.8789 82.3989C19.0196 83.1164 19.8346 83.3475 20.3622 83.8612C20.4357 83.9331 20.5699 83.9575 20.6174 84.0382C21.1838 85.0001 21.7385 85.9684 22.3447 87.0183C22.1081 86.9698 22.0057 86.949 21.7511 86.8966C21.935 87.0932 22.0254 87.273 22.1368 87.287C22.2558 87.3025 22.3894 87.1322 22.5289 87.1037C22.5921 87.0907 22.7014 87.2146 22.7573 87.2981C22.7831 87.3362 22.7474 87.474 22.7121 87.4858C22.4487 87.5762 22.1779 87.6464 21.8853 87.7303C21.9288 88.2092 21.9753 88.7204 22.0103 89.1025C21.7324 89.2366 21.5661 89.3164 21.4003 89.3963C21.8414 89.5166 21.5795 89.8027 21.5635 90.0425C21.5467 90.286 21.5738 90.5325 21.581 90.7612C20.9269 91.0499 20.4683 90.7857 20.0002 90.3553C20.046 90.7038 20.0865 91.0167 20.1337 91.3759Z" fill="white" fill-opacity="0.15"/>
<path fill-rule="evenodd" clip-rule="evenodd" d="M118.118 94.7879C117.604 95.0657 117.046 95.2055 117.125 95.9078C116.397 95.6019 116.126 95.2437 116.297 94.5682C116.415 94.102 116.391 93.6187 116.613 93.147C116.806 92.734 116.637 92.1656 116.732 91.6863C116.805 91.3178 117.04 90.9812 117.204 90.6308C117.338 90.6649 117.483 90.7026 117.712 90.7614C117.62 90.961 117.531 91.1572 117.441 91.3532C117.48 91.3825 117.52 91.4117 117.559 91.4411C117.762 91.2771 117.965 91.1133 118.193 90.9291C118.317 90.9907 118.543 91.2028 118.759 91.1933C120.056 91.1368 121.194 91.6362 122.314 92.1761C122.681 92.3532 122.968 92.6913 123.314 92.9222C124.171 93.493 124.358 93.5816 124.657 94.377C124.873 94.9519 125.1 95.5668 124.935 96.2324C124.869 96.495 124.836 96.8388 124.952 97.0597C125.246 97.6173 124.996 97.8774 124.54 98.1038C124.412 98.1669 124.291 98.2579 124.19 98.3593C123.541 99.0096 123.449 99.0338 122.726 98.666C121.655 98.1216 120.808 97.281 119.918 96.5023C119.29 95.9521 118.706 95.3507 118.118 94.7879Z" fill="white" fill-opacity="0.15"/>
<path fill-rule="evenodd" clip-rule="evenodd" d="M99.4816 91.2374C98.7601 91.2427 98.0539 91.2903 97.353 91.0994C96.0464 90.7423 94.7095 90.473 93.4352 90.0245C92.0954 89.553 90.7164 89.1219 89.6011 88.3061C89.4025 87.8445 90.2308 87.9785 89.9471 87.4622C89.8662 87.3147 90.1419 86.968 90.2602 86.7156C90.5536 86.0889 90.7949 85.8731 91.3729 86.0474C91.9434 86.2197 92.4299 86.1186 92.9488 85.9496C93.7504 85.6887 94.5599 85.9526 95.366 85.9372C96.2283 85.9205 97.0297 86.2326 97.8524 86.4306C98.2783 86.5329 98.7359 86.536 99.1392 86.6887C99.545 86.8423 99.9654 87.0659 100.256 87.3749C100.433 87.5632 100.459 87.9862 100.405 88.2764C100.337 88.6343 100.439 89.0359 100.146 89.3594C99.9769 89.5463 100.141 89.7617 100.211 89.9767C100.291 90.2235 100.384 90.5265 99.843 90.4707C99.4649 90.4321 99.3981 90.8351 99.4816 91.2374Z" fill="white" fill-opacity="0.15"/>
<path fill-rule="evenodd" clip-rule="evenodd" d="M135.599 62.841C134.219 63.0255 133.247 62.4484 132.292 61.8938C131.452 61.4062 130.632 60.8672 129.87 60.266C129.109 59.6653 128.141 59.2389 127.816 58.1181C128.805 58.2024 129.289 59.1756 130.329 59.4127C129.631 58.4907 128.672 58.0207 127.811 57.1225C128.279 57.1122 128.449 57.1083 128.657 57.1036C128.589 56.9156 128.518 56.7185 128.447 56.5224C128.709 56.2962 128.968 56.073 129.274 55.8093C129.449 55.9023 129.693 56.0486 129.95 56.166C130.952 56.6221 130.953 56.6167 132.166 56.3936C132.301 56.369 132.444 56.3736 132.583 56.3793C133.646 56.4217 134.676 56.5668 135.598 57.1748C135.939 57.3997 136.491 57.8561 136.676 58.1985C136.719 58.2787 136.838 58.3331 136.934 58.3667C137.179 58.4519 137.196 58.6345 137.094 58.8077C136.798 59.3092 136.889 59.907 136.667 60.4244C136.573 60.6449 136.639 60.8278 136.727 61.0508C136.847 61.3546 136.508 62.0341 136.218 62.1227C136.039 62.1775 135.769 61.9459 135.677 62.2846C135.629 62.4624 135.624 62.652 135.599 62.841Z" fill="white" fill-opacity="0.15"/>
<path fill-rule="evenodd" clip-rule="evenodd" d="M90.7569 58.3334C90.6025 58.4603 90.4405 58.5931 90.2169 58.7767C90.4201 58.9033 90.5647 58.9929 90.7162 59.0872C90.5198 59.8199 90.3155 60.5826 90.105 61.3695C90.0246 61.4159 89.9178 61.4579 89.835 61.5282C88.8549 62.3647 87.7647 62.1639 86.7218 61.765C85.9072 61.4533 85.1249 61.0436 84.3994 60.5226C83.9466 60.1972 83.535 59.8944 83.3318 59.2144C84.0872 59.754 84.7599 60.2341 85.4329 60.7146C85.4757 60.667 85.5187 60.6197 85.5618 60.5718C85.4661 60.4616 85.3857 60.3306 85.2718 60.2442C84.8013 59.8874 84.3098 59.5571 83.8485 59.1897C83.644 59.027 83.3151 58.8673 83.7109 58.5082C83.833 58.3975 83.741 58.0493 83.7446 57.8096C83.7476 57.5993 83.7467 57.3889 83.7477 57.22C84.1808 56.914 84.416 57.3115 84.7965 57.3118C84.5847 57.0983 84.373 56.8848 84.0941 56.6039C84.1735 56.4035 84.2796 56.1357 84.3854 55.8675C84.5796 55.919 84.8561 56.02 84.7997 55.5719C84.7394 55.0873 84.895 54.7951 85.4369 54.8233C85.4862 54.8259 85.5708 54.801 85.5833 54.7679C85.8227 54.128 86.3081 54.3475 86.6855 54.5132C87.5869 54.9097 88.3011 55.5983 89.0567 56.2095C89.2341 56.3529 89.6387 56.6966 89.1306 57.0177C89.1018 57.0358 89.1726 57.2106 89.1973 57.3121C89.3207 57.2757 89.5356 57.2636 89.5528 57.1982C89.6757 56.7374 90.0532 57.0284 90.0632 57.112C90.1257 57.6255 90.762 57.789 90.7569 58.3334Z" fill="white" fill-opacity="0.15"/>
<path fill-rule="evenodd" clip-rule="evenodd" d="M75.1621 39.5034C75.3432 39.5519 75.5248 39.6005 75.8002 39.674C75.6724 39.379 75.5672 39.1355 75.4526 38.8698C75.8064 38.5532 76.1601 38.2074 76.5455 37.9016C76.7785 37.7169 77.0481 37.5627 77.3247 37.4551C77.5358 37.3734 77.592 37.8221 77.9715 37.6451C78.2168 37.5307 78.6252 37.8239 78.9507 38.0042C79.215 38.1506 79.2933 38.7525 79.7888 38.4277C79.9896 38.735 80.1907 39.0427 80.3923 39.3496C80.4115 39.3796 80.4363 39.4059 80.4588 39.4341L82.7514 40.0484C82.9071 39.9585 83.0605 39.8432 83.2323 39.777C83.4977 39.6759 83.8982 39.7656 83.8598 39.9867C83.7745 40.4784 84.4033 40.421 84.3627 40.8055C83.7371 41.469 83.513 41.6318 82.8354 41.8796C83.182 42.1238 83.4839 42.3369 83.8633 42.6047C83.8195 42.7558 83.8228 43.0605 83.6947 43.1335C82.8851 43.5927 82.1548 44.287 81.106 44.1297C80.8215 44.0868 80.516 44.1011 80.2551 43.9987C79.6599 43.7656 79.0841 43.4824 78.5054 43.2082C78.2202 43.0729 77.9483 42.9085 77.6666 42.7651C77.2303 42.543 77.0031 41.9912 76.4326 41.9815C76.2479 41.5132 75.8165 41.3276 75.4464 41.0453C74.9433 40.6618 74.795 40.1027 75.1621 39.5034Z" fill="white" fill-opacity="0.15"/>
<path fill-rule="evenodd" clip-rule="evenodd" d="M36.5984 42.4333C36.9797 42.2132 37.2403 42.0623 37.5009 41.9123C37.8504 41.7115 38.1943 41.4349 38.5655 41.8931C38.6064 41.9441 38.7865 41.9544 38.8437 41.9094C39.2216 41.6095 39.5543 41.9382 39.9064 41.964C40.8619 42.0342 41.4064 42.7438 41.988 43.355C42.3197 43.7035 42.3565 44.0696 42.0548 44.6116C41.7163 45.2198 41.1798 45.7859 41.1495 46.5533C40.8395 46.7404 40.8661 47.3789 40.2733 47.1979C40.1875 47.1719 40.0588 47.2208 39.9725 47.2726C38.7515 48.0091 37.5696 47.7464 36.3786 47.1737C35.7744 46.8836 35.1171 46.692 34.648 46.1761C34.4555 45.9644 34.2813 45.734 34.1214 45.4968C34.0685 45.4192 34.035 45.251 34.0799 45.1979C34.4742 44.7335 34.5908 44.1013 34.973 43.6506C35.4444 43.0953 36.0428 42.6647 36.5984 42.4333Z" fill="white" fill-opacity="0.15"/>
<path fill-rule="evenodd" clip-rule="evenodd" d="M62.4268 90.7911C62.6998 90.9334 62.9006 91.0384 63.2908 91.2421C63.14 90.8749 63.0902 90.7481 63.036 90.6235C62.8551 90.2109 62.8548 90.212 63.3161 89.8793C63.3737 89.8374 63.4728 89.7912 63.4746 89.7438C63.4947 89.2625 63.7867 88.9623 64.2003 88.8651C64.6689 88.7548 65.1846 88.658 65.6464 88.7405C67.4483 89.0623 68.9519 90.0198 70.3445 91.1528C70.5816 91.3464 70.6823 91.7072 70.8438 91.987C70.6892 92.0547 70.5679 92.108 70.446 92.1612C70.6733 92.4977 70.7442 92.8036 70.3817 93.1233C70.2731 93.2195 70.2109 93.5003 70.2702 93.6311C70.4729 94.0774 69.92 94.1221 69.8956 94.4294C69.4316 94.1841 69.2845 94.8903 68.8538 94.7722C68.4413 94.6592 67.9675 94.6621 67.6168 94.4523C66.8444 93.99 66.0722 93.4908 65.4218 92.8771C65.0894 92.5631 64.7755 92.408 64.3838 92.4046C63.7483 92.3999 63.1756 92.2595 62.6539 91.8911C62.2184 91.5834 62.2125 91.5921 62.4268 90.7911Z" fill="white" fill-opacity="0.15"/>
<path fill-rule="evenodd" clip-rule="evenodd" d="M74.1924 68.8276C74.1363 68.7304 74.0349 68.6086 73.9965 68.4691C73.9709 68.3759 74.0778 68.2405 74.045 68.1556C74.0092 68.0629 73.8532 68.0229 73.7987 67.931C73.7505 67.8493 73.8078 67.6818 73.7502 67.6342C73.6446 67.5465 73.4924 67.4966 73.3526 67.474C73.2596 67.4588 73.1541 67.5187 73.004 67.5586C73.1873 67.7354 73.3351 67.8777 73.4834 68.0203C73.0164 68.0091 72.5356 68.0628 72.4115 67.4577C72.5895 67.4363 72.7647 67.4159 72.9818 67.3901C72.6851 66.7469 72.3022 67.3917 71.9171 67.2285C72.2581 67.0819 72.3439 66.7392 72.6896 66.5965C72.8498 66.5303 72.8609 66.1021 72.9643 65.7544C73.4304 65.8302 73.9527 65.9146 74.5637 66.0138C74.4612 65.7425 74.3883 65.5493 74.2994 65.3141C74.7166 64.9522 75.1443 64.5814 75.5768 64.2064C76.0112 64.3813 76.3748 64.5597 76.7578 64.6729C77.0895 64.7703 77.4571 64.7508 77.7843 64.8579C78.7081 65.1606 79.4198 65.8053 80.1029 66.4549C80.3476 66.6873 80.6946 67.078 80.2024 67.4622C80.5019 67.9751 80.0038 68.365 79.9474 68.8323C79.8764 69.4176 79.3746 69.8011 78.6528 69.9027C77.5717 70.0548 76.6004 69.703 75.6557 69.3598C75.1827 69.1875 74.6863 69.0542 74.1924 68.8276Z" fill="white" fill-opacity="0.15"/>
<path fill-rule="evenodd" clip-rule="evenodd" d="M114.399 93.7819C114.587 93.7445 114.77 93.7082 114.979 93.6669C114.539 92.8235 113.556 93.0839 113 92.3946C113.216 92.3713 113.375 92.3226 113.523 92.3447C113.761 92.3805 113.991 92.4628 114.311 92.5486C114.004 92.1761 113.903 92.1079 113.505 91.9614C113.66 91.0424 113.66 91.0424 114.266 90.6897C114.817 90.8731 115.389 91.2042 115.968 91.2183C116.607 91.2343 117.03 91.6468 117.583 91.7991C118.111 91.9451 118.598 92.2781 119.068 92.583C119.326 92.7498 119.603 92.9927 119.708 93.2644C119.839 93.608 119.972 94.1479 119.801 94.3656C119.52 94.7242 119.751 94.9357 119.765 95.2245C119.782 95.6195 119.737 96.0397 119.379 96.3337C119.169 96.5053 118.996 96.8408 118.782 96.8624C118.261 96.9146 117.698 96.9237 117.205 96.7746C116.274 96.4931 115.369 96.115 114.481 95.7152C114.258 95.6152 114.142 95.2809 113.909 94.9631C114.15 95.0009 114.246 95.0156 114.449 95.0472C114.089 94.5897 114.426 94.1667 114.399 93.7819Z" fill="white" fill-opacity="0.15"/>
<path fill-rule="evenodd" clip-rule="evenodd" d="M113.21 111.054C112.858 111.062 112.689 111.065 112.524 111.068C112.763 111.99 112.732 112.063 111.917 112.151C112.319 112.452 112.641 112.692 112.991 112.952C112.878 113.149 112.763 113.35 112.646 113.553C112.146 113.42 111.639 113.284 111.084 113.135C111.148 113.734 111.857 113.618 112.066 114.111C111.585 114.485 111.077 114.305 110.587 114.152C110.319 114.068 110.087 113.87 109.818 113.795C108.621 113.465 107.465 113.028 106.331 112.525C106.23 112.48 106.115 112.463 106.006 112.436C105.415 112.293 104.813 112.172 104.443 111.596C104.689 111.144 105.098 111.386 105.485 111.458C105.496 110.872 104.854 111.165 104.697 110.828C104.497 110.428 105.517 110.497 104.965 109.972L106.025 109.361C106.451 109.399 106.88 109.433 107.308 109.478C107.737 109.524 108.12 109.724 108.593 109.69C109.053 109.656 109.529 109.93 110.006 110.026C110.317 110.089 110.593 110.263 110.97 110.155C111.242 110.076 111.578 110.364 111.914 110.108C112.007 110.037 112.294 110.114 112.42 110.214C112.66 110.404 112.848 110.66 113.21 111.054Z" fill="white" fill-opacity="0.15"/>
<path fill-rule="evenodd" clip-rule="evenodd" d="M68.7134 49.5068C69.0628 49.3347 69.1948 49.0266 69.6307 49.0709C69.5054 49.215 69.4146 49.3196 69.3155 49.4337C69.6574 49.7591 70.0107 50.0745 70.3345 50.4175C70.4174 50.5055 70.4801 50.7376 70.4266 50.8081C70.1299 51.2004 70.2549 51.6912 70.0829 52.099C70.0069 52.2797 69.8234 52.43 69.6582 52.5522C69.5752 52.6131 69.3936 52.5395 69.3103 52.6C69.209 52.6738 69.1645 52.8253 69.088 52.9555C68.5776 52.4592 68.5723 52.4302 67.7812 52.5866C67.3077 52.6801 67.001 52.3387 66.5793 52.256C66.5937 52.4261 66.6077 52.5902 66.6235 52.7743C66.4653 52.7279 66.2449 52.7298 66.1914 52.6363C65.5236 51.468 65.5074 51.4424 64.5722 51.0512C64.5765 51.7512 65.3272 51.7244 65.656 52.2218C65.5008 52.2818 65.2976 52.4211 65.2379 52.3748C64.637 51.9115 63.9247 51.5575 63.8945 50.603C63.8851 50.3067 63.8384 50.1753 64.108 50.0135C64.2744 49.914 64.3979 49.7112 64.4928 49.5302C64.7391 49.0613 64.9584 48.5788 65.2097 48.0573C65.386 48.144 65.5492 48.2244 65.5096 48.2047C65.9678 48.2438 65.9545 47.4336 66.3783 48.0417C66.4988 48.2141 66.6546 47.5469 66.929 48.0222C67.035 48.2059 67.4788 48.195 67.7464 48.2667C67.7765 48.4589 67.8057 48.6419 67.8345 48.8252C67.9018 48.8308 67.9692 48.8364 68.0368 48.8418C68.0285 48.631 68.0201 48.4201 68.0099 48.1548C68.3561 48.351 68.5568 48.4642 68.8201 48.613C68.787 48.8894 68.7504 49.198 68.7134 49.5068Z" fill="white" fill-opacity="0.15"/>
<path fill-rule="evenodd" clip-rule="evenodd" d="M52.7011 97.712C52.3119 97.5579 52.0037 97.4359 51.6612 97.2999C51.6794 97.5643 51.6908 97.7323 51.7058 97.9513C51.2277 97.9921 50.8062 97.847 50.4152 97.6677C49.551 97.2709 48.7547 96.7425 47.8834 96.3483C47.3476 96.1062 47.0299 95.5965 46.8366 94.9908C47.2302 94.6429 47.6293 95.1113 48.0773 95.0291L47.5275 94.0767C48.1727 93.5722 48.7945 93.086 49.3647 92.6406C50.3534 92.8494 51.1467 93.2336 51.8718 93.7878C52.2854 94.1033 52.8232 94.2089 53.2065 94.6218C53.3581 94.7849 53.2631 95.1769 53.6405 95.1456C53.6467 95.1448 53.6856 95.4275 53.6821 95.4281C53.097 95.533 53.3397 96.3294 52.8087 96.4858C52.7742 96.4956 52.7956 96.7233 52.8063 96.8487C52.8176 96.9866 52.8663 97.124 52.8607 97.2602C52.8572 97.3617 52.7937 97.4605 52.7011 97.712Z" fill="white" fill-opacity="0.15"/>
<path fill-rule="evenodd" clip-rule="evenodd" d="M81.1998 97.0337C81.5265 97.2765 81.7644 97.4533 82.1041 97.7053C82.0552 97.4069 82.0331 97.27 82.0095 97.1248C82.0688 97.1264 82.1513 97.1037 82.181 97.1334C82.4628 97.4179 82.7876 97.6125 83.1768 97.7274C83.4097 97.7962 83.6277 97.932 83.8355 98.064C84.2027 98.2983 84.5814 98.3843 85.022 98.2246C85.0115 98.0614 85.0003 97.8928 84.9952 97.8144C85.2602 97.846 85.5486 97.8809 85.7634 97.9066C85.8338 98.0285 85.877 98.0734 85.8679 98.0916C85.7571 98.3091 85.6387 98.5224 85.5318 98.719C85.7341 98.9585 85.917 99.1757 86.1913 99.5009C85.816 99.5277 85.6105 99.5421 85.3145 99.5628C85.3351 99.8943 85.3562 100.227 85.3788 100.586C85.256 100.676 85.1125 100.783 84.9364 100.913L85.1874 101.347C84.9084 101.999 84.4778 102.182 83.8273 102.039C83.1188 101.884 82.3889 101.829 81.6245 101.598C81.7475 101.351 81.8665 101.113 81.9971 100.853C81.6616 100.52 81.2649 100.279 80.7874 100.096C80.3096 99.9122 79.8988 99.5535 79.4742 99.2811C79.5568 98.7623 79.9341 98.8932 80.2608 98.8518C80.215 98.7468 80.1999 98.6154 80.1277 98.5624C79.6767 98.2344 79.6358 97.9672 80.0406 97.7082C80.4203 97.4646 80.8203 97.2528 81.1998 97.0337Z" fill="white" fill-opacity="0.15"/>
<path fill-rule="evenodd" clip-rule="evenodd" d="M55.5908 116.976C55.8947 117.124 56.1431 117.245 56.4529 117.396C56.4182 117.236 56.4275 117.114 56.3718 117.049C56.1011 116.734 55.8129 116.435 55.4924 116.089L56.061 115.76C56.1691 115.834 56.3017 115.925 56.5639 116.104L56.1025 115.304C56.1911 115.201 56.279 115.135 56.3169 115.047C56.4034 114.847 56.4957 114.451 56.5321 114.457C56.8987 114.518 57.1345 114.217 57.429 114.171C57.8679 114.101 58.3482 114.144 58.6082 114.605C58.6859 114.743 58.5924 115 58.6861 115.1C58.7624 115.181 59.0255 115.056 59.1616 115.119C59.2728 115.17 59.4116 115.399 59.3777 115.486C59.2409 115.835 59.4481 116.064 59.6069 116.3C59.8057 116.593 59.779 116.857 59.5516 117.091C59.3087 117.341 59.3484 117.567 59.4479 117.88C59.5882 118.322 59.4696 118.739 59.0029 118.983C58.8417 119.067 58.6805 119.165 58.547 119.287C58.2072 119.596 57.6634 119.786 57.3775 119.571C56.6798 119.046 55.8719 118.635 55.4787 117.77C55.3256 117.433 55.4655 117.231 55.5908 116.976Z" fill="white" fill-opacity="0.15"/>
<path fill-rule="evenodd" clip-rule="evenodd" d="M76.8014 81.2645C77.0858 81.1954 77.3826 81.1231 77.7475 81.0344C77.6978 80.6426 77.5621 80.3173 77.1205 80.1968C77.2834 79.6871 77.7829 80.0253 78.0896 79.7803C78.0228 79.5927 77.9531 79.3948 77.8843 79.2011C77.9848 78.7671 78.5225 79.1501 78.6991 78.7211C78.8794 78.2821 79.2745 78.7767 79.5869 78.6791C79.7623 78.6242 80.001 78.7021 80.1905 78.7744C80.818 79.0129 81.2434 79.6172 81.9652 79.7251C82.1379 79.7508 82.2613 80.1104 82.4538 80.3824C81.7498 80.4297 82.2188 81.3192 81.5714 81.418C81.5607 81.7747 81.9894 82.1628 81.428 82.563C81.3035 82.4923 81.1085 82.3816 80.8307 82.2234C80.8551 82.5408 80.8669 82.6947 80.8794 82.8529C80.5921 83.124 80.274 82.9251 80.0591 82.8057C79.3447 82.4075 78.6055 82.2139 77.7868 82.2016C77.283 82.194 76.8669 81.9479 76.8014 81.2645Z" fill="white" fill-opacity="0.15"/>
<path fill-rule="evenodd" clip-rule="evenodd" d="M57.0358 58.0217C56.7829 58.6498 56.5966 59.1132 56.3562 59.7116L55.5344 60.1861C54.9473 59.9081 54.4918 59.3594 53.7995 59.2497C53.3781 58.6341 52.7021 58.4921 52.0557 58.2664C51.85 58.1943 51.7196 57.9071 51.5136 57.6712C51.6321 57.5501 51.7737 57.4722 51.8073 57.3615C52.1528 56.226 53.088 56.2122 53.9628 56.3456C54.7095 56.4593 55.4527 56.7509 56.1324 57.0922C56.5175 57.2855 56.772 57.7387 57.0358 58.0217Z" fill="white" fill-opacity="0.15"/>
</svg>
