<svg width="91" height="14" viewBox="0 0 91 14" fill="none" xmlns="http://www.w3.org/2000/svg">
<path d="M86.0612 6.95403C86.894 6.95403 87.4609 7.48374 87.6382 8.3306H84.394C84.5712 7.46574 85.2095 6.95403 86.0612 6.95403ZM90.3317 9.14317C90.3317 6.58289 88.5423 4.76317 86.0957 4.76317C83.4735 4.76317 81.6299 6.61803 81.6299 9.23146C81.6299 11.916 83.5432 13.7169 86.1671 13.7169C88.1346 13.7169 89.339 13.0637 90.0659 12.1629L88.4709 10.5343C87.9615 11.1184 87.2266 11.4587 86.4501 11.4703C85.3868 11.4703 84.5575 10.956 84.3768 9.97031H90.2784C90.2965 9.79289 90.3317 9.3866 90.3317 9.13974V9.14317ZM76.986 13.5583H79.7691V7.1486H81.4174V4.92003H79.7691V3.66946C79.7691 2.98374 80.0874 2.73346 80.5838 2.73346C80.8324 2.73346 81.2935 2.85689 81.6651 3.05146L82.1813 1.05517C81.8802 0.843459 80.9941 0.384888 79.8422 0.384888C78.1052 0.384888 76.9886 1.42632 76.9886 3.56317V4.9226H76.1558V7.15117H76.9886L76.986 13.5583ZM70.6973 11.28C69.5987 11.28 68.8364 10.4683 68.8364 9.24946C68.8364 8.01346 69.6339 7.20089 70.6973 7.20089C71.7296 7.20089 72.5228 8.06574 72.5228 9.24946C72.5228 10.4855 71.69 11.28 70.6973 11.28ZM70.1131 13.7169C71.1584 13.7169 71.9378 13.3637 72.5056 12.6403L72.5409 12.6575V13.5583H75.182V4.9226H72.3989V5.82346L72.3636 5.84146C71.7659 5.14614 70.8891 4.75109 69.9703 4.76317C67.7335 4.76317 66.0181 6.60003 66.0181 9.24946C66.0181 11.916 67.7387 13.7169 70.1131 13.7169ZM60.7359 13.7169C62.8282 13.7169 65.3617 12.6575 65.3617 9.70803C65.3617 7.28917 63.6609 6.72346 61.4448 5.8766C60.0804 5.34689 59.6201 5.02889 59.6382 4.42803C59.6382 3.82803 60.0812 3.45774 60.8082 3.45774C61.5171 3.45774 62.2965 3.79289 63.3779 4.63974L65.0443 2.48574C63.8399 1.45717 62.3326 0.825459 60.6843 0.857173C58.3443 0.892316 56.5549 2.46346 56.5549 4.54717C56.5549 7.02003 58.4699 7.92089 60.3832 8.57574C61.8018 9.05231 62.244 9.35231 62.244 10.0415C62.244 10.6063 61.819 11.1009 60.8262 11.1009C59.9582 11.1009 58.8063 10.6595 57.8496 9.61717L56.1118 11.7189C57.4591 13.0963 59.1229 13.7143 60.7376 13.7143L60.7359 13.7169ZM48.3847 13.7143C50.7599 13.7143 51.9119 12.5486 51.9119 10.9415C51.9119 9.24688 50.8666 8.75231 48.9516 8.09917C48.0836 7.79917 47.7644 7.6046 47.7644 7.33889C47.7644 7.00374 48.136 6.86317 48.4526 6.86317C49.0376 6.86317 49.7818 7.16317 50.3848 7.76317L51.6968 5.83889C50.686 5.09746 49.7293 4.7606 48.4174 4.7606C46.6107 4.7606 45.1741 5.76774 45.1741 7.51631C45.1741 9.17574 46.4499 9.88203 47.9038 10.3235C48.9852 10.6595 49.251 10.8377 49.251 11.1189C49.251 11.436 48.9671 11.6332 48.4174 11.6332C47.6199 11.6332 46.8757 11.3152 46.1488 10.662L44.854 12.45C45.8107 13.2977 47.0159 13.7212 48.3812 13.7212L48.3847 13.7143ZM41.1152 13.5626H43.8802V4.9226H41.1143L41.1152 13.5626ZM42.4968 3.85032C43.4543 3.85032 44.1632 3.1646 44.1632 2.26032C44.1632 1.39546 43.4543 0.706316 42.4968 0.706316C41.5393 0.706316 40.8451 1.40917 40.8451 2.25603C40.8451 3.15689 41.5333 3.84603 42.4934 3.84603L42.4968 3.85032ZM36.4352 13.7169C38.8105 13.7169 39.9624 12.5512 39.9624 10.944C39.9624 9.24946 38.9163 8.75489 37.003 8.10174C36.1341 7.80174 35.8149 7.60717 35.8149 7.34146C35.8149 7.00631 36.1874 6.86574 36.5032 6.86574C37.0873 6.86574 37.8323 7.16574 38.4345 7.76574L39.7456 5.84146C38.7356 5.10003 37.779 4.76317 36.467 4.76317C34.6604 4.76317 33.2237 5.77031 33.2237 7.51889C33.2237 9.17831 34.4995 9.8846 35.9526 10.326C37.0348 10.662 37.2998 10.8403 37.2998 11.1215C37.2998 11.4386 37.0167 11.6357 36.467 11.6357C35.6695 11.6357 34.9254 11.3177 34.1984 10.6646L32.908 12.4483C33.8646 13.296 35.0708 13.7195 36.4352 13.7195V13.7169ZM27.7686 11.28C26.6691 11.28 25.8759 10.3972 25.8759 9.24946C25.8759 8.06574 26.6562 7.21803 27.7686 7.21803C28.8491 7.21803 29.6475 8.0486 29.6475 9.24946C29.6475 10.4323 28.8147 11.28 27.7686 11.28ZM27.7686 13.7169C30.4983 13.7169 32.4477 11.898 32.4477 9.24946C32.4477 6.58289 30.4983 4.76317 27.7686 4.76317C24.9683 4.76317 23.0714 6.61803 23.0714 9.24946C23.0714 11.8629 24.9683 13.7169 27.7686 13.7169ZM13.5367 13.5583H16.3009V9.21431C16.3009 7.87203 16.9392 7.21803 17.8967 7.21803C18.8 7.21803 19.2792 7.62431 19.2792 9.05488V13.5583H22.0442V8.38374C22.0442 5.64689 20.7322 4.76317 18.942 4.76317C17.9427 4.74663 16.9879 5.17426 16.337 5.92974H16.3009V4.9226H13.5367V13.5583ZM7.04926 13.6989C8.99955 13.6989 10.9128 13.0457 12.0648 12.1629V6.52974H6.78343V8.9666H9.22924V10.4503C8.56277 10.8188 7.81139 11.0076 7.04926 10.998C4.90454 10.998 3.64679 9.33774 3.64679 7.30631C3.64679 4.97574 5.13596 3.61546 6.92538 3.61546C8.05434 3.61194 9.13805 4.05706 9.93641 4.85231L12.0269 3.0866C10.7365 1.60289 8.74834 0.843459 6.92279 0.843459C2.90006 0.843459 0.541992 3.67203 0.541992 7.30631C0.541992 11.3863 3.41366 13.6989 7.04668 13.6989" fill="white"/>
</svg>
