<svg width="23" height="23" viewBox="0 0 23 23" fill="none" xmlns="http://www.w3.org/2000/svg">
<path d="M11.7857 0.843385C9.5948 0.842537 7.45289 1.48905 5.63084 2.70115C3.80879 3.91326 2.38845 5.6365 1.54945 7.65294C0.710453 9.66938 0.490492 11.8884 0.917387 14.0294C1.34428 16.1704 2.39886 18.1372 3.94773 19.681C5.4966 21.2248 7.4702 22.2763 9.61891 22.7024C11.7676 23.1286 13.9949 22.9103 16.0191 22.0752C18.0433 21.24 19.7734 19.8256 20.9907 18.0107C22.2079 16.1957 22.8577 14.0619 22.8577 11.8791C22.8574 8.95305 21.691 6.14686 19.6148 4.07744C17.5385 2.00801 14.7225 0.844748 11.7857 0.843385ZM19.8922 12.4817H14.7485C14.5953 13.2464 14.16 13.9263 13.5285 14.387C12.897 14.8478 12.1151 15.0561 11.3371 14.9708C10.559 14.8855 9.8413 14.5128 9.32545 13.9263C8.80959 13.3398 8.53304 12.5819 8.55035 11.8022C8.56766 11.0226 8.87756 10.2777 9.41894 9.71442C9.96032 9.15118 10.6939 8.8105 11.4749 8.75957C12.256 8.70864 13.0279 8.95116 13.6383 9.43929C14.2488 9.92743 14.6535 10.6257 14.7726 11.3965H19.8879C20.0323 11.3965 20.1709 11.4537 20.273 11.5554C20.3751 11.6572 20.4325 11.7952 20.4325 11.9391C20.4325 12.083 20.3751 12.221 20.273 12.3228C20.1709 12.4245 20.0323 12.4817 19.8879 12.4817H19.8922Z" fill="white"/>
</svg>
