<svg width="48" height="19" viewBox="0 0 48 19" fill="none" xmlns="http://www.w3.org/2000/svg">
<path d="M6.528 18H10.056L16.32 0.959999H12.024L8.328 12.264H8.28L4.584 0.959999H0.24L6.528 18ZM21.5588 18.216C25.2548 18.216 27.8948 15.744 27.8948 12.144C27.8948 8.52 25.2548 6.048 21.5588 6.048C17.7668 6.048 15.1988 8.568 15.1988 12.144C15.1988 15.696 17.7668 18.216 21.5588 18.216ZM21.5588 14.904C20.0708 14.904 18.9908 13.704 18.9908 12.144C18.9908 10.536 20.0468 9.384 21.5588 9.384C23.0228 9.384 24.1028 10.512 24.1028 12.144C24.1028 13.752 22.9748 14.904 21.5588 14.904ZM29.7876 18H33.5316V0.335999H29.7876V18ZM37.6757 18.216C38.8517 18.216 39.8357 17.28 39.8357 16.104C39.8357 14.928 38.8517 13.968 37.6757 13.968C36.4757 13.968 35.5157 14.928 35.5157 16.104C35.5157 17.28 36.4757 18.216 37.6757 18.216ZM43.9806 18H47.9166V1.512H44.8206L39.6366 5.184L41.4846 8.064L43.9806 6.216V18Z" fill="white"/>
<path d="M6.528 18L5.58984 18.3462L5.8311 19H6.528V18ZM10.056 18V19H10.7538L10.9946 18.345L10.056 18ZM16.32 0.959999L17.2586 1.30503L17.753 -0.0400009H16.32V0.959999ZM12.024 0.959999V-0.0400009H11.2989L11.0735 0.649225L12.024 0.959999ZM8.328 12.264V13.264H9.05313L9.27848 12.5748L8.328 12.264ZM8.28 12.264L7.32952 12.5748L7.55487 13.264H8.28V12.264ZM4.584 0.959999L5.53448 0.649225L5.30913 -0.0400009H4.584V0.959999ZM0.24 0.959999V-0.0400009H-1.19493L-0.698162 1.30619L0.24 0.959999ZM6.528 19H10.056V17H6.528V19ZM10.9946 18.345L17.2586 1.30503L15.3814 0.614968L9.11741 17.655L10.9946 18.345ZM16.32 -0.0400009H12.024V1.96H16.32V-0.0400009ZM11.0735 0.649225L7.37752 11.9532L9.27848 12.5748L12.9745 1.27077L11.0735 0.649225ZM8.328 11.264H8.28V13.264H8.328V11.264ZM9.23048 11.9532L5.53448 0.649225L3.63352 1.27077L7.32952 12.5748L9.23048 11.9532ZM4.584 -0.0400009H0.24V1.96H4.584V-0.0400009ZM-0.698162 1.30619L5.58984 18.3462L7.46616 17.6538L1.17816 0.613804L-0.698162 1.30619ZM21.5588 19.216C23.6321 19.216 25.4727 18.5198 26.8022 17.2543C28.1358 15.9849 28.8948 14.1989 28.8948 12.144H26.8948C26.8948 13.6891 26.3337 14.9391 25.4233 15.8057C24.5088 16.6762 23.1814 17.216 21.5588 17.216V19.216ZM28.8948 12.144C28.8948 10.079 28.1371 8.28688 26.8032 7.01364C25.4734 5.74428 23.6321 5.048 21.5588 5.048V7.048C23.1814 7.048 24.5081 7.58772 25.4223 8.46035C26.3324 9.32912 26.8948 10.585 26.8948 12.144H28.8948ZM21.5588 5.048C19.4376 5.048 17.5878 5.7563 16.2623 7.03543C14.9347 8.3167 14.1988 10.1083 14.1988 12.144H16.1987C16.1987 10.6037 16.7468 9.3473 17.6512 8.47457C18.5577 7.5997 19.8879 7.048 21.5588 7.048V5.048ZM14.1988 12.144C14.1988 14.1696 14.9359 15.9551 16.2633 17.2325C17.5884 18.5078 19.4376 19.216 21.5588 19.216V17.216C19.8879 17.216 18.5571 16.6642 17.6502 15.7915C16.7456 14.9209 16.1987 13.6704 16.1987 12.144H14.1988ZM21.5588 13.904C20.6987 13.904 19.9908 13.2306 19.9908 12.144H17.9908C17.9908 14.1774 19.4428 15.904 21.5588 15.904V13.904ZM19.9908 12.144C19.9908 11.5598 20.1803 11.1224 20.4413 10.8406C20.6972 10.5644 21.0694 10.384 21.5588 10.384V8.384C20.5361 8.384 19.6243 8.77959 18.9742 9.48141C18.3292 10.1776 17.9908 11.1202 17.9908 12.144H19.9908ZM21.5588 10.384C22.4054 10.384 23.1028 10.9969 23.1028 12.144H25.1028C25.1028 10.0271 23.6401 8.384 21.5588 8.384V10.384ZM23.1028 12.144C23.1028 13.2603 22.3638 13.904 21.5588 13.904V15.904C23.5857 15.904 25.1028 14.2437 25.1028 12.144H23.1028ZM29.7876 18H28.7876V19H29.7876V18ZM33.5316 18V19H34.5316V18H33.5316ZM33.5316 0.335999H34.5316V-0.664001H33.5316V0.335999ZM29.7876 0.335999V-0.664001H28.7876V0.335999H29.7876ZM29.7876 19H33.5316V17H29.7876V19ZM34.5316 18V0.335999H32.5316V18H34.5316ZM33.5316 -0.664001H29.7876V1.336H33.5316V-0.664001ZM28.7876 0.335999V18H30.7876V0.335999H28.7876ZM37.6757 19.216C39.3745 19.216 40.8357 17.8613 40.8357 16.104H38.8357C38.8357 16.6987 38.3289 17.216 37.6757 17.216V19.216ZM40.8357 16.104C40.8357 14.3613 39.3894 12.968 37.6757 12.968V14.968C38.314 14.968 38.8357 15.4947 38.8357 16.104H40.8357ZM37.6757 12.968C35.9307 12.968 34.5157 14.3684 34.5157 16.104H36.5157C36.5157 15.4876 37.0207 14.968 37.6757 14.968V12.968ZM34.5157 16.104C34.5157 17.8542 35.9455 19.216 37.6757 19.216V17.216C37.0058 17.216 36.5157 16.7058 36.5157 16.104H34.5157ZM43.9806 18H42.9806V19H43.9806V18ZM47.9166 18V19H48.9166V18H47.9166ZM47.9166 1.512H48.9166V0.511999H47.9166V1.512ZM44.8206 1.512V0.511999H44.5023L44.2425 0.695975L44.8206 1.512ZM39.6366 5.184L39.0585 4.36797L38.2791 4.92011L38.7949 5.72405L39.6366 5.184ZM41.4846 8.064L40.6429 8.60405L41.2203 9.50389L42.0796 8.86769L41.4846 8.064ZM43.9806 6.216H44.9806V4.23136L43.3855 5.4123L43.9806 6.216ZM43.9806 19H47.9166V17H43.9806V19ZM48.9166 18V1.512H46.9166V18H48.9166ZM47.9166 0.511999H44.8206V2.512H47.9166V0.511999ZM44.2425 0.695975L39.0585 4.36797L40.2146 6.00002L45.3986 2.32802L44.2425 0.695975ZM38.7949 5.72405L40.6429 8.60405L42.3262 7.52395L40.4782 4.64395L38.7949 5.72405ZM42.0796 8.86769L44.5756 7.01969L43.3855 5.4123L40.8895 7.26031L42.0796 8.86769ZM42.9806 6.216V18H44.9806V6.216H42.9806Z" fill="#14232F"/>
</svg>
