<svg width="21" height="17" viewBox="0 0 21 17" fill="none" xmlns="http://www.w3.org/2000/svg">
<path fill-rule="evenodd" clip-rule="evenodd" d="M15.0112 16.4256C15.0112 16.4257 15.0112 16.4257 15.0112 16.4257H15.0106C15.0108 16.4257 15.011 16.4257 15.0112 16.4256ZM13.8812 14.9024C14.3931 15.6042 15.0073 16.4205 15.0112 16.4256C18.5949 16.2987 20.0751 13.8329 20.2215 13.589C20.2297 13.5754 20.2337 13.5687 20.2337 13.5697C20.2337 7.49506 17.7676 2.5625 17.7676 2.5625C15.3188 0.525796 12.9723 0.582679 12.9723 0.582679L12.7338 0.887039C15.645 1.85774 16.9976 3.28572 16.9976 3.28572C15.2165 2.21972 13.4706 1.68635 11.8429 1.47729C10.6099 1.32437 9.42868 1.36279 8.38432 1.51497C8.29449 1.51497 8.21781 1.52958 8.13133 1.54607C8.11868 1.54848 8.10582 1.55093 8.09267 1.55338C7.49409 1.62947 6.03783 1.85774 4.20555 2.75309C3.57242 3.05745 3.19507 3.28572 3.19507 3.28572C3.19507 3.28572 4.59951 1.78165 7.6821 0.810949L7.5107 0.582679C7.5107 0.582679 5.18148 0.525796 2.71607 2.56324C2.71607 2.56324 0.25 7.49506 0.25 13.569C0.25 13.569 1.68832 16.3119 5.47313 16.4449C5.47313 16.4449 6.10626 15.6071 6.6198 14.8832C4.44538 14.16 3.62358 12.6551 3.62358 12.6551C3.62358 12.6551 3.79498 12.7889 4.10324 12.9795C4.11339 12.9795 4.1238 12.9864 4.13824 12.9959C4.14742 13.002 4.15824 13.0092 4.17167 13.0164C4.19795 13.0365 4.22423 13.0512 4.2506 13.0659C4.27556 13.0798 4.3006 13.0937 4.3258 13.1124C4.75364 13.3791 5.18148 13.5882 5.57544 13.7596C6.27766 14.0839 7.11674 14.369 8.09267 14.5788C9.37753 14.8448 10.8843 14.9401 12.5279 14.5973C13.3331 14.4259 14.1549 14.1784 15.0112 13.7788C15.6105 13.5313 16.2782 13.1693 16.9804 12.6551C16.9804 12.6551 16.124 14.1976 13.8812 14.9024ZM11.5516 9.70388C11.5516 8.54258 12.3223 7.60956 13.2982 7.60956C14.2576 7.60956 15.0448 8.54258 15.0448 9.70388C15.0448 10.8652 14.2748 11.7982 13.2989 11.7982C12.3396 11.7982 11.5516 10.8652 11.5516 9.70388ZM5.30076 9.70388C5.30076 8.54258 6.07141 7.60956 7.04801 7.60956C8.0246 7.60956 8.81186 8.54258 8.79525 9.70388C8.79525 10.8652 8.0246 11.7982 7.04801 11.7982C6.08935 11.7982 5.30076 10.8652 5.30076 9.70388Z"/>
</svg>
