<svg width="21" height="21" viewBox="0 0 21 21" fill="#162832" xmlns="http://www.w3.org/2000/svg"><path fill-rule="evenodd" clip-rule="evenodd" d="M10.4687 0.496094C4.82645 0.496094 0.25 5.07255 0.25 10.7147C0.25 15.2285 3.19648 19.0527 7.20872 20.4319C7.71024 20.4946 7.89832 20.1811 7.89832 19.9303C7.89832 19.6796 7.89832 19.0527 7.89832 18.175C5.07722 18.8019 4.45031 16.7958 4.45031 16.7958C4.01147 15.6047 3.32187 15.2912 3.32187 15.2912C2.3815 14.6643 3.38456 14.6643 3.38456 14.6643C4.38761 14.727 4.95183 15.73 4.95183 15.73C5.8922 17.2973 7.3341 16.8585 7.89832 16.6077C7.96101 15.9181 8.27446 15.4793 8.52523 15.2285C6.26835 14.9777 3.88609 14.1001 3.88609 10.1505C3.88609 9.02209 4.26223 8.14441 4.95183 7.39212C4.88914 7.20405 4.513 6.1383 5.07722 4.75909C5.07722 4.75909 5.95489 4.50833 7.89832 5.82484C8.7133 5.57408 9.59098 5.51138 10.4687 5.51138C11.3463 5.51138 12.224 5.63677 13.039 5.82484C14.9824 4.50833 15.8601 4.75909 15.8601 4.75909C16.4243 6.1383 16.0482 7.20405 15.9855 7.45481C16.6124 8.14441 17.0512 9.08478 17.0512 10.2132C17.0512 14.1628 14.669 14.9777 12.4121 15.2285C12.7882 15.542 13.1017 16.1689 13.1017 17.1092C13.1017 18.4884 13.1017 19.5542 13.1017 19.9303C13.1017 20.1811 13.2898 20.4946 13.7913 20.4319C17.8662 19.0527 20.75 15.2285 20.75 10.7147C20.6873 5.07255 16.1109 0.496094 10.4687 0.496094Z"></path></svg>