<svg width="32" height="32" viewBox="0 0 32 32" fill="none" xmlns="http://www.w3.org/2000/svg">
<path fill-rule="evenodd" clip-rule="evenodd" d="M13.3333 16.0047C13.3333 15.5091 13.2561 15.0317 13.1131 14.5836L19.893 10.4761C20.7464 11.4121 21.9758 11.9993 23.3425 11.9993C25.9202 11.9993 28.0092 9.91039 28.0092 7.33268C28.0092 4.75592 25.9199 2.66602 23.3425 2.66602C20.7652 2.66602 18.6759 4.75592 18.6759 7.33268C18.6759 7.58057 18.6952 7.82393 18.7324 8.06135L11.6054 12.3791C10.8032 11.7281 9.78057 11.338 8.66667 11.338C6.08895 11.338 4 13.427 4 16.0047C4 18.5814 6.08933 20.6713 8.66667 20.6713C9.78078 20.6713 10.8037 20.2808 11.6061 19.6293L18.7327 23.9469C18.6953 24.185 18.6759 24.4291 18.6759 24.6777C18.6759 27.2555 20.7648 29.3444 23.3425 29.3444C25.9202 29.3444 28.0092 27.2555 28.0092 24.6777C28.0092 22.1 25.9202 20.0111 23.3425 20.0111C21.9765 20.0111 20.7478 20.5977 19.8944 21.5328L13.1133 17.4246C13.2562 16.9768 13.3333 16.4997 13.3333 16.0047ZM23.3425 5.33268C24.4469 5.33268 25.3425 6.22852 25.3425 7.33268C25.3425 8.43764 24.4475 9.33268 23.3425 9.33268C22.2376 9.33268 21.3425 8.43764 21.3425 7.33268C21.3425 6.22852 22.2381 5.33268 23.3425 5.33268ZM10.6667 16.0047C10.6667 14.8997 9.77162 14.0047 8.66667 14.0047C7.56171 14.0047 6.66667 14.8997 6.66667 16.0047C6.66667 17.1088 7.56226 18.0047 8.66667 18.0047C9.77108 18.0047 10.6667 17.1088 10.6667 16.0047ZM23.3425 22.6777C24.4475 22.6777 25.3425 23.5728 25.3425 24.6777C25.3425 25.7827 24.4475 26.6777 23.3425 26.6777C22.2376 26.6777 21.3425 25.7827 21.3425 24.6777C21.3425 23.5728 22.2376 22.6777 23.3425 22.6777Z" fill="#005546"/>
</svg>
