<svg width="21" height="17" viewBox="0 0 21 17" fill="#162832" xmlns="http://www.w3.org/2000/svg"><path d="M20.75 2.09375C19.9812 2.47813 19.2125 2.60625 18.3156 2.73438C19.2125 2.22187 19.8531 1.45312 20.1094 0.428125C19.3406 0.940625 18.4437 1.19687 17.4187 1.45312C16.65 0.684375 15.4969 0.171875 14.3438 0.171875C11.6531 0.171875 9.60313 2.73438 10.2438 5.29688C6.78438 5.16875 3.70938 3.50313 1.53125 0.940625C0.378125 2.8625 1.01875 5.29688 2.8125 6.57812C2.17188 6.57812 1.53125 6.32188 0.890625 6.06563C0.890625 7.9875 2.3 9.78125 4.22188 10.2937C3.58125 10.4219 2.94063 10.55 2.3 10.4219C2.8125 12.0875 4.35 13.3687 6.27187 13.3687C4.73437 14.5219 2.42813 15.1625 0.25 14.9062C2.17188 16.0594 4.35 16.8281 6.65625 16.8281C14.4719 16.8281 18.8281 10.2937 18.5719 4.27187C19.4687 3.75937 20.2375 2.99062 20.75 2.09375Z"></path></svg>